RecursiveMono-GothicAItalic.ufo
<glyph name="exclam" format="1">
  <advance width="350"/>
  <unicode hex="0021"/>
  <outline>
    <contour>
      <point x="198" y="240.0" type="line"/>
      <point x="202" y="327.0"/>
      <point x="206" y="415.0"/>
      <point x="210" y="502.0" type="curve"/>
      <point x="210" y="689.0" type="line" smooth="yes"/>
      <point x="210" y="696.0"/>
      <point x="206" y="700.0"/>
      <point x="200" y="700.0" type="curve" smooth="yes"/>
      <point x="180" y="700.0"/>
      <point x="160" y="700.0"/>
      <point x="140" y="700.0" type="curve"/>
      <point x="140" y="662.0"/>
      <point x="140" y="627.0"/>
      <point x="140" y="590.0" type="curve" smooth="yes"/>
      <point x="140" y="502.0" type="line"/>
      <point x="150" y="254.0"/>
      <point x="152" y="247.0"/>
      <point x="156" y="243.0" type="curve" smooth="yes"/>
      <point x="158" y="241.0"/>
      <point x="160" y="240.0"/>
      <point x="164" y="240.0" type="curve"/>
    </contour>
    <component base="period" xOffset="25"/>
  </outline>
</glyph>
<glyph name="quotesingle" format="1">
  <advance width="250"/>
  <unicode hex="0027"/>
  <outline>
    <contour>
      <point x="156.43597219009078" y="450.0" type="curve"/>
      <point x="179.43597219009078" y="737.0" type="line" smooth="yes"/>
      <point x="180.43597219009078" y="746.0"/>
      <point x="175.43597219009078" y="750.0"/>
      <point x="169.43597219009078" y="750.0" type="curve" smooth="yes"/>
      <point x="139.9466104879631" y="750.0"/>
      <point x="107.14383735863012" y="750.0"/>
      <point x="70.43597219009078" y="750.0" type="curve"/>
      <point x="73.43597219009078" y="714.0"/>
      <point x="75.43597219009078" y="683.0"/>
      <point x="78.43597219009078" y="648.0" type="curve" smooth="yes"/>
      <point x="93.43597219009078" y="461.0" type="line" smooth="yes"/>
      <point x="94.43597219009078" y="454.0"/>
      <point x="99.43597219009078" y="450.0"/>
      <point x="105.43597219009078" y="450.0" type="curve" smooth="yes"/>
      <point x="122.85060633643221" y="450.0"/>
      <point x="139.8055374074821" y="450.0"/>
    </contour>
  </outline>
</glyph>
<glyph name="parenleft" format="1">
  <advance width="400"/>
  <unicode hex="0028"/>
  <outline>
    <contour>
      <point x="319" y="752.0" type="curve" smooth="yes"/>
      <point x="198.65860803599324" y="631.6586080359932"/>
      <point x="142" y="473.0"/>
      <point x="142" y="303.0" type="curve" smooth="yes"/>
      <point x="142" y="296.0" type="line" smooth="yes"/>
      <point x="142" y="126.0"/>
      <point x="198.65860803599324" y="-32.65860803599324"/>
      <point x="319" y="-153.0" type="curve" smooth="yes"/>
      <point x="323" y="-158.0"/>
      <point x="331" y="-161.0"/>
      <point x="339" y="-161.0" type="curve" smooth="yes"/>
      <point x="352.6666666666667" y="-161.0"/>
      <point x="366.3333333333333" y="-161.0"/>
      <point x="380" y="-161.0" type="curve"/>
      <point x="380" y="-149.0" type="line"/>
      <point x="254.55784759719938" y="-30.639259426389714"/>
      <point x="192" y="126.0"/>
      <point x="192" y="296.0" type="curve" smooth="yes"/>
      <point x="192" y="303.0" type="line" smooth="yes"/>
      <point x="192" y="473.0"/>
      <point x="254.55784759719936" y="629.6392594263897"/>
      <point x="380" y="748.0" type="curve"/>
      <point x="380" y="760.0" type="line"/>
      <point x="366.3333333333333" y="760.0"/>
      <point x="352.6666666666667" y="760.0"/>
      <point x="339" y="760.0" type="curve" smooth="yes"/>
      <point x="331" y="760.0"/>
      <point x="323" y="757.0"/>
    </contour>
  </outline>
</glyph>
<glyph name="comma" format="1">
  <advance width="350"/>
  <unicode hex="002C"/>
  <outline>
    <contour>
      <point x="130" y="-190.0" type="curve" smooth="yes"/>
      <point x="135" y="-190.0"/>
      <point x="138.42943266424504" y="-189.0"/>
      <point x="140.42943266424504" y="-183.0" type="curve"/>
      <point x="181.42943266424504" y="-90.0"/>
      <point x="221.42943266424504" y="4.0"/>
      <point x="262.42943266424504" y="97.0" type="curve"/>
      <point x="265.42943266424504" y="105.0"/>
      <point x="262.42943266424504" y="110.0"/>
      <point x="254.42943266424504" y="110.0" type="curve" smooth="yes"/>
      <point x="219.42943266424504" y="110.0"/>
      <point x="199.42943266424504" y="110.0"/>
      <point x="158.42943266424504" y="110.0" type="curve"/>
      <point x="134.42943266424504" y="10.0"/>
      <point x="110.42943266424504" y="-90.0"/>
      <point x="86.42943266424504" y="-190.0" type="curve"/>
      <point x="98.42943266424504" y="-190.0"/>
      <point x="111" y="-190.0"/>
    </contour>
  </outline>
</glyph>
<glyph name="period" format="1">
  <advance width="300"/>
  <unicode hex="002E"/>
  <outline>
    <contour>
      <point x="212.0" y="-5.0" type="curve"/>
      <point x="212.0" y="104.0" type="line" smooth="yes"/>
      <point x="212.0" y="110.0"/>
      <point x="207.0" y="115.0"/>
      <point x="201.0" y="115.0" type="curve" smooth="yes"/>
      <point x="171.0" y="115.0"/>
      <point x="118.0" y="115.0"/>
      <point x="88.0" y="115.0" type="curve"/>
      <point x="88.0" y="6.0" type="line" smooth="yes"/>
      <point x="88.0" y="0.0"/>
      <point x="93.0" y="-5.0"/>
      <point x="99.0" y="-5.0" type="curve" smooth="yes"/>
      <point x="129.0" y="-5.0"/>
      <point x="182.0" y="-5.0"/>
    </contour>
  </outline>
</glyph>
<glyph name="two" format="1">
  <advance width="600"/>
  <unicode hex="0032"/>
  <outline>
    <contour>
      <point x="465" y="621" type="curve"/>
      <point x="465.0" y="580.9612590799031"/>
      <point x="465.0" y="573.0"/>
      <point x="465" y="535" type="curve" smooth="yes"/>
      <point x="465.0" y="472.0"/>
      <point x="437.0" y="440.0"/>
      <point x="296" y="345" type="curve" smooth="yes"/>
      <point x="140.0" y="239"/>
      <point x="70" y="175"/>
      <point x="70" y="40" type="curve" smooth="yes"/>
      <point x="70" y="30"/>
      <point x="75" y="27"/>
      <point x="121" y="27" type="curve"/>
      <point x="121" y="144"/>
      <point x="148" y="181"/>
      <point x="327" y="306" type="curve" smooth="yes"/>
      <point x="454" y="394"/>
      <point x="515.0" y="443.0"/>
      <point x="515" y="529" type="curve" smooth="yes"/>
      <point x="515" y="561" type="line" smooth="yes"/>
      <point x="515" y="589"/>
      <point x="503.0" y="621.0"/>
    </contour>
    <contour>
      <point x="530" y="0" type="line"/>
      <point x="530" y="12"/>
      <point x="530" y="24"/>
      <point x="530" y="36" type="curve" smooth="yes"/>
      <point x="530" y="42"/>
      <point x="525" y="47"/>
      <point x="519" y="47" type="curve" smooth="yes"/>
      <point x="110" y="47" type="line" smooth="yes"/>
      <point x="96" y="47"/>
      <point x="84" y="47"/>
      <point x="70" y="40" type="curve"/>
      <point x="70" y="32"/>
      <point x="70" y="24"/>
      <point x="70" y="11" type="curve" smooth="yes"/>
      <point x="70" y="5"/>
      <point x="75" y="0"/>
      <point x="81" y="0" type="curve" smooth="yes"/>
    </contour>
    <contour>
      <point x="300" y="720" type="curve" smooth="yes"/>
      <point x="203" y="720"/>
      <point x="129" y="684"/>
      <point x="90" y="645" type="curve" smooth="yes"/>
      <point x="88" y="643"/>
      <point x="87" y="641"/>
      <point x="87" y="637" type="curve" smooth="yes"/>
      <point x="87" y="614"/>
      <point x="87" y="599"/>
      <point x="87" y="590" type="curve"/>
      <point x="98" y="590" type="line"/>
      <point x="160" y="650"/>
      <point x="215" y="673"/>
      <point x="300" y="673" type="curve" smooth="yes"/>
      <point x="405.0" y="673.0"/>
      <point x="465.0" y="641.5378151260504"/>
      <point x="465" y="556" type="curve" smooth="yes"/>
      <point x="465.0" y="527.2432432432432"/>
      <point x="465.0" y="508.7567567567568"/>
      <point x="465" y="480" type="curve"/>
      <point x="497.0" y="481.0"/>
      <point x="515.0" y="512.0"/>
      <point x="515" y="561" type="curve" smooth="yes"/>
      <point x="515" y="658"/>
      <point x="432" y="720"/>
    </contour>
  </outline>
</glyph>
<glyph name="eight" format="1">
  <advance width="600"/>
  <unicode hex="0038"/>
  <outline>
    <contour>
      <point x="357" y="347" type="curve" smooth="yes"/>
      <point x="272" y="378" type="line" smooth="yes"/>
      <point x="170" y="415"/>
      <point x="128" y="457"/>
      <point x="128" y="522" type="curve" smooth="yes"/>
      <point x="128" y="541"/>
      <point x="128" y="554"/>
      <point x="128" y="577" type="curve"/>
      <point x="104" y="577"/>
      <point x="78" y="546"/>
      <point x="78" y="516" type="curve" smooth="yes"/>
      <point x="78" y="437"/>
      <point x="136" y="378"/>
      <point x="260" y="332" type="curve" smooth="yes"/>
      <point x="346" y="300" type="line" smooth="yes"/>
      <point x="445" y="263"/>
      <point x="485" y="225"/>
      <point x="485" y="167" type="curve" smooth="yes"/>
      <point x="485" y="130"/>
      <point x="484" y="113"/>
      <point x="483" y="106" type="curve"/>
      <point x="504" y="113"/>
      <point x="535" y="154"/>
      <point x="535" y="176" type="curve"/>
      <point x="535" y="247"/>
      <point x="476" y="303"/>
    </contour>
    <contour>
      <point x="300" y="-20" type="curve" smooth="yes"/>
      <point x="442" y="-20"/>
      <point x="535" y="48"/>
      <point x="535" y="151" type="curve" smooth="yes"/>
      <point x="535" y="176" type="line" smooth="yes"/>
      <point x="535" y="198"/>
      <point x="514" y="215"/>
      <point x="485" y="218" type="curve"/>
      <point x="485" y="208"/>
      <point x="485" y="190"/>
      <point x="485" y="155" type="curve" smooth="yes"/>
      <point x="485" y="73"/>
      <point x="417" y="26"/>
      <point x="300" y="26" type="curve" smooth="yes"/>
      <point x="260" y="26"/>
      <point x="234" y="26"/>
      <point x="217" y="26" type="curve"/>
      <point x="217" y="3"/>
      <point x="258" y="-20"/>
    </contour>
    <contour>
      <point x="303" y="720" type="curve" smooth="yes"/>
      <point x="172" y="720"/>
      <point x="78" y="645"/>
      <point x="78" y="541" type="curve" smooth="yes"/>
      <point x="78" y="516" type="line" smooth="yes"/>
      <point x="78" y="482"/>
      <point x="96" y="462"/>
      <point x="128" y="462" type="curve"/>
      <point x="128" y="488"/>
      <point x="128" y="507"/>
      <point x="128" y="534" type="curve" smooth="yes"/>
      <point x="128" y="612"/>
      <point x="202" y="674"/>
      <point x="297" y="674" type="curve" smooth="yes"/>
      <point x="332" y="674"/>
      <point x="368" y="674"/>
      <point x="388" y="674" type="curve"/>
      <point x="388" y="700"/>
      <point x="351" y="720"/>
    </contour>
    <contour>
      <point x="329" y="338" type="curve" smooth="yes"/>
      <point x="422" y="338"/>
      <point x="525" y="434"/>
      <point x="525" y="521" type="curve" smooth="yes"/>
      <point x="525" y="546" type="line" smooth="yes"/>
      <point x="525" y="650"/>
      <point x="436" y="720"/>
      <point x="303" y="720" type="curve" smooth="yes"/>
      <point x="286" y="720"/>
      <point x="285" y="709"/>
      <point x="297" y="674" type="curve"/>
      <point x="416" y="674"/>
      <point x="474" y="629"/>
      <point x="474" y="539" type="curve" smooth="yes"/>
      <point x="474" y="528" type="line" smooth="yes"/>
      <point x="474" y="457"/>
      <point x="407" y="394"/>
      <point x="289" y="354" type="curve"/>
      <point x="293" y="344"/>
      <point x="308" y="338"/>
    </contour>
    <contour>
      <point x="300" y="26" type="curve"/>
      <point x="188" y="26"/>
      <point x="115" y="77"/>
      <point x="115" y="156" type="curve" smooth="yes"/>
      <point x="115" y="169" type="line" smooth="yes"/>
      <point x="115" y="246"/>
      <point x="189" y="309"/>
      <point x="300" y="328" type="curve"/>
      <point x="295" y="340"/>
      <point x="280" y="352"/>
      <point x="269" y="352" type="curve" smooth="yes"/>
      <point x="160" y="352"/>
      <point x="65" y="269"/>
      <point x="65" y="174" type="curve" smooth="yes"/>
      <point x="65" y="149" type="line" smooth="yes"/>
      <point x="65" y="50"/>
      <point x="163" y="-20"/>
      <point x="300" y="-20" type="curve" smooth="yes"/>
      <point x="318" y="-20"/>
      <point x="318" y="-1"/>
    </contour>
  </outline>
</glyph>
<glyph name="at" format="1">
  <advance width="600"/>
  <unicode hex="0040"/>
  <outline>
    <contour>
      <point x="478" y="513" type="curve" smooth="yes"/>
      <point x="465" y="526"/>
      <point x="428" y="535"/>
      <point x="387" y="535" type="curve" smooth="yes"/>
      <point x="347" y="535"/>
      <point x="317" y="525"/>
      <point x="294" y="503" type="curve" smooth="yes"/>
      <point x="281" y="490"/>
      <point x="278" y="475"/>
      <point x="308" y="405" type="curve"/>
      <point x="308" y="469"/>
      <point x="340" y="488"/>
      <point x="395" y="488" type="curve" smooth="yes"/>
      <point x="420" y="488"/>
      <point x="445" y="485"/>
      <point x="477" y="476" type="curve"/>
      <point x="489" y="491"/>
      <point x="489" y="502"/>
    </contour>
    <contour>
      <point x="486" y="165" type="curve"/>
      <point x="447" y="110"/>
      <point x="405.0" y="80.0"/>
      <point x="364" y="80" type="curve" smooth="yes"/>
      <point x="331" y="80"/>
      <point x="308.0" y="105.0"/>
      <point x="308.0" y="140.0" type="curve" smooth="yes"/>
      <point x="308" y="405" type="line" smooth="yes"/>
      <point x="308" y="449"/>
      <point x="317" y="473"/>
      <point x="346" y="510" type="curve"/>
      <point x="321" y="519"/>
      <point x="308" y="517"/>
      <point x="294" y="503" type="curve" smooth="yes"/>
      <point x="269" y="478"/>
      <point x="258" y="444"/>
      <point x="258" y="397" type="curve" smooth="yes"/>
      <point x="258" y="141" type="line" smooth="yes"/>
      <point x="258.0" y="73.0"/>
      <point x="295" y="30"/>
      <point x="353" y="30" type="curve" smooth="yes"/>
      <point x="398" y="30"/>
      <point x="430" y="47"/>
      <point x="480" y="97" type="curve" smooth="yes"/>
      <point x="486.0" y="103.0"/>
      <point x="486" y="110"/>
    </contour>
    <contour>
      <point x="518" y="40" type="line"/>
      <point x="518" y="75"/>
      <point x="518" y="109"/>
      <point x="518" y="144" type="curve"/>
      <point x="518" y="546" type="line" smooth="yes"/>
      <point x="518" y="645"/>
      <point x="479" y="760"/>
      <point x="308" y="760" type="curve" smooth="yes"/>
      <point x="299.0" y="760.0"/>
      <point x="297.0" y="754.0"/>
      <point x="312" y="710" type="curve"/>
      <point x="390.0" y="710.0"/>
      <point x="468" y="679.5515463917526"/>
      <point x="468" y="531" type="curve" smooth="yes"/>
      <point x="468" y="110" type="line" smooth="yes"/>
      <point x="468.0" y="104.0"/>
      <point x="483" y="40"/>
      <point x="487" y="40" type="curve" smooth="yes"/>
    </contour>
    <contour>
      <point x="82" y="484" type="curve" smooth="yes"/>
      <point x="82" y="88" type="line" smooth="yes"/>
      <point x="82" y="-14"/>
      <point x="96" y="-72"/>
      <point x="151" y="-127" type="curve" smooth="yes"/>
      <point x="176" y="-152"/>
      <point x="256" y="-170"/>
      <point x="318" y="-140" type="curve"/>
      <point x="163" y="-140"/>
      <point x="132" y="-5.742857142857133"/>
      <point x="132" y="82" type="curve" smooth="yes"/>
      <point x="132" y="471" type="line" smooth="yes"/>
      <point x="132" y="630"/>
      <point x="192" y="710"/>
      <point x="312" y="710" type="curve" smooth="yes"/>
      <point x="381.0" y="710.0"/>
      <point x="434" y="684"/>
      <point x="460" y="649" type="curve"/>
      <point x="468" y="652"/>
      <point x="470" y="661"/>
      <point x="470" y="669" type="curve" smooth="yes"/>
      <point x="470.0" y="712.0"/>
      <point x="383.0" y="760.0"/>
      <point x="308" y="760" type="curve" smooth="yes"/>
      <point x="166" y="760"/>
      <point x="82" y="656"/>
    </contour>
    <contour>
      <point x="318" y="-190.0" type="curve" smooth="yes"/>
      <point x="382.0" y="-190.0"/>
      <point x="438.0" y="-174.0"/>
      <point x="455" y="-157" type="curve" smooth="yes"/>
      <point x="457" y="-155"/>
      <point x="458.0" y="-152.0"/>
      <point x="458" y="-149" type="curve" smooth="yes"/>
      <point x="458" y="-112" type="line"/>
      <point x="443" y="-112" type="line"/>
      <point x="403" y="-132"/>
      <point x="368" y="-140"/>
      <point x="318" y="-140" type="curve" smooth="yes"/>
      <point x="246" y="-140"/>
      <point x="195" y="-112"/>
      <point x="149" y="-55" type="curve"/>
      <point x="133" y="-73"/>
      <point x="128" y="-104"/>
      <point x="151" y="-127" type="curve"/>
      <point x="186.0" y="-162.0"/>
      <point x="250.0" y="-190"/>
    </contour>
  </outline>
</glyph>
<glyph name="G" format="1">
  <advance width="650"/>
  <unicode hex="0047"/>
  <outline>
    <contour>
      <point x="354" y="673" type="curve" smooth="yes"/>
      <point x="449" y="673"/>
      <point x="505" y="658"/>
      <point x="560" y="605" type="curve"/>
      <point x="574" y="625"/>
      <point x="575.0" y="632"/>
      <point x="575" y="637" type="curve" smooth="yes"/>
      <point x="575.0" y="648"/>
      <point x="573" y="652"/>
      <point x="569" y="656" type="curve" smooth="yes"/>
      <point x="530" y="695"/>
      <point x="458" y="720"/>
      <point x="359" y="720" type="curve" smooth="yes"/>
      <point x="171" y="720"/>
      <point x="76" y="621"/>
      <point x="76" y="427" type="curve" smooth="yes"/>
      <point x="76" y="230" type="line" smooth="yes"/>
      <point x="76.0" y="175"/>
      <point x="94" y="134"/>
      <point x="128" y="133" type="curve"/>
      <point x="128.0" y="167.69565217391303"/>
      <point x="128" y="198.0"/>
      <point x="128" y="238" type="curve" smooth="yes"/>
      <point x="128" y="426" type="line" smooth="yes"/>
      <point x="128" y="593"/>
      <point x="200" y="673"/>
    </contour>
    <contour>
      <point x="336" y="27" type="curve" smooth="yes"/>
      <point x="212" y="27"/>
      <point x="128.0" y="107.0"/>
      <point x="128" y="238" type="curve"/>
      <point x="90" y="238"/>
      <point x="76.0" y="234"/>
      <point x="76" y="230" type="curve" smooth="yes"/>
      <point x="76.0" y="81"/>
      <point x="181" y="-20"/>
      <point x="336" y="-20" type="curve" smooth="yes"/>
      <point x="496" y="-20"/>
      <point x="574" y="65"/>
      <point x="574" y="87" type="curve" smooth="yes"/>
      <point x="574" y="310" type="line" smooth="yes"/>
      <point x="574" y="317"/>
      <point x="554" y="318"/>
      <point x="524" y="318" type="curve"/>
      <point x="524" y="244"/>
      <point x="524" y="172"/>
      <point x="524" y="98" type="curve" smooth="yes"/>
      <point x="524.0" y="87.0"/>
      <point x="463" y="27"/>
    </contour>
    <contour>
      <point x="341" y="340" type="line"/>
      <point x="341" y="327"/>
      <point x="341" y="317"/>
      <point x="341" y="304" type="curve" smooth="yes"/>
      <point x="341" y="301"/>
      <point x="342" y="298"/>
      <point x="344" y="296" type="curve" smooth="yes"/>
      <point x="346" y="294"/>
      <point x="349" y="293"/>
      <point x="352" y="293" type="curve"/>
      <point x="621" y="293" type="line"/>
      <point x="621" y="329" type="line" smooth="yes"/>
      <point x="621" y="335"/>
      <point x="616" y="340"/>
      <point x="610" y="340" type="curve" smooth="yes"/>
    </contour>
    <contour>
      <point x="575" y="498" type="curve"/>
      <point x="575" y="637" type="line" smooth="yes"/>
      <point x="575" y="648"/>
      <point x="563.0" y="660.0"/>
      <point x="525" y="660" type="curve"/>
      <point x="525" y="648"/>
      <point x="525.0" y="644.0"/>
      <point x="525" y="636" type="curve" smooth="yes"/>
      <point x="525" y="509" type="line" smooth="yes"/>
      <point x="525" y="502"/>
      <point x="529" y="498"/>
      <point x="536" y="498" type="curve" smooth="yes"/>
      <point x="549" y="498"/>
      <point x="562" y="498"/>
    </contour>
    <contour>
      <point x="348" y="711" type="move" name="top"/>
    </contour>
    <contour>
      <point x="348" y="-1" type="move" name="bottom"/>
    </contour>
  </outline>
</glyph>
<glyph name="U" format="1">
  <advance width="650"/>
  <unicode hex="0055"/>
  <outline>
    <contour>
      <point x="85" y="700" type="curve"/>
      <point x="85" y="667"/>
      <point x="85" y="633"/>
      <point x="85" y="600" type="curve" smooth="yes"/>
      <point x="85" y="168" type="line"/>
      <point x="85" y="157"/>
      <point x="91" y="99"/>
      <point x="135" y="93" type="curve"/>
      <point x="135.0" y="133"/>
      <point x="135.0" y="140"/>
      <point x="135" y="178" type="curve"/>
      <point x="135" y="689" type="line"/>
      <point x="135" y="695"/>
      <point x="130" y="700"/>
      <point x="124" y="700" type="curve"/>
      <point x="111" y="700"/>
      <point x="98" y="700"/>
    </contour>
    <contour>
      <point x="272" y="-20.0" type="curve" smooth="yes"/>
      <point x="375.0" y="-20.0"/>
      <point x="453.0" y="32.0"/>
      <point x="516" y="114" type="curve" smooth="yes"/>
      <point x="539" y="144"/>
      <point x="545" y="175"/>
      <point x="531.0" y="200.0" type="curve"/>
      <point x="438" y="70.0"/>
      <point x="370.0" y="27.0"/>
      <point x="273" y="27" type="curve" smooth="yes"/>
      <point x="181" y="27"/>
      <point x="135.0" y="77.0"/>
      <point x="135.0" y="178.0" type="curve"/>
      <point x="93" y="176"/>
      <point x="85" y="173"/>
      <point x="85.0" y="168.0" type="curve" smooth="yes"/>
      <point x="85.0" y="55.0"/>
      <point x="146" y="-20"/>
    </contour>
    <contour>
      <point x="560" y="0" type="curve"/>
      <point x="560.0" y="33"/>
      <point x="560.0" y="67.0"/>
      <point x="560" y="100" type="curve" smooth="yes"/>
      <point x="560" y="689" type="line" smooth="yes"/>
      <point x="560.0" y="695.0"/>
      <point x="555.0" y="700.0"/>
      <point x="549" y="700" type="curve" smooth="yes"/>
      <point x="536.0" y="700.0"/>
      <point x="523" y="700.0"/>
      <point x="510" y="700" type="curve"/>
      <point x="510" y="11" type="line" smooth="yes"/>
      <point x="510.0" y="8.0"/>
      <point x="511" y="5"/>
      <point x="513" y="3" type="curve" smooth="yes"/>
      <point x="515" y="1"/>
      <point x="518" y="0"/>
      <point x="521" y="0" type="curve" smooth="yes"/>
      <point x="534.0" y="0.0"/>
      <point x="547" y="0.0"/>
    </contour>
    <contour>
      <point x="322" y="711" type="move" name="top"/>
    </contour>
    <contour>
      <point x="560" y="-1" type="move" name="ogonek"/>
    </contour>
    <contour>
      <point x="322" y="711" type="move" name="ring"/>
    </contour>
    <contour>
      <point x="322" y="-1" type="move" name="bottom"/>
    </contour>
  </outline>
</glyph>
<glyph name="Z" format="1">
  <advance width="600"/>
  <unicode hex="005A"/>
  <outline>
    <contour>
      <point x="90" y="700" type="line"/>
      <point x="90" y="687"/>
      <point x="90" y="677"/>
      <point x="90" y="664" type="curve" smooth="yes"/>
      <point x="90" y="661"/>
      <point x="91" y="658"/>
      <point x="93" y="656" type="curve" smooth="yes"/>
      <point x="95" y="654"/>
      <point x="98" y="653"/>
      <point x="101" y="653" type="curve" smooth="yes"/>
      <point x="480" y="653" type="line" smooth="yes"/>
      <point x="488" y="653"/>
      <point x="509" y="653"/>
      <point x="525" y="653" type="curve" smooth="yes"/>
      <point x="532" y="653"/>
      <point x="538" y="653"/>
      <point x="540" y="653" type="curve"/>
      <point x="540" y="689" type="line" smooth="yes"/>
      <point x="540" y="695"/>
      <point x="535" y="700"/>
      <point x="529" y="700" type="curve" smooth="yes"/>
    </contour>
    <contour>
      <point x="503" y="682" type="curve"/>
      <point x="357" y="473"/>
      <point x="207" y="257"/>
      <point x="60" y="47" type="curve"/>
      <point x="98.0" y="27.0"/>
      <point x="108" y="26"/>
      <point x="112" y="32" type="curve" smooth="yes"/>
      <point x="284" y="278"/>
      <point x="540.0" y="652.0"/>
      <point x="540" y="653" type="curve"/>
      <point x="513.0" y="685"/>
      <point x="509" y="688.0"/>
    </contour>
    <contour>
      <point x="540" y="0" type="line"/>
      <point x="540.0" y="13"/>
      <point x="540.0" y="23"/>
      <point x="540" y="36" type="curve" smooth="yes"/>
      <point x="540" y="39"/>
      <point x="539" y="42"/>
      <point x="537" y="44" type="curve" smooth="yes"/>
      <point x="535" y="46"/>
      <point x="532" y="47"/>
      <point x="529" y="47" type="curve" smooth="yes"/>
      <point x="121" y="47" type="line" smooth="yes"/>
      <point x="102" y="47"/>
      <point x="82" y="47"/>
      <point x="60" y="47" type="curve"/>
      <point x="60" y="11" type="line" smooth="yes"/>
      <point x="60" y="5"/>
      <point x="65.0" y="0.0"/>
      <point x="71" y="0" type="curve" smooth="yes"/>
    </contour>
    <contour>
      <point x="130" y="550" type="curve"/>
      <point x="130.0" y="589.4319526627219"/>
      <point x="130.0" y="629.5680473372781"/>
      <point x="130" y="669" type="curve"/>
      <point x="130" y="692"/>
      <point x="120.0" y="700"/>
      <point x="100" y="700" type="curve" smooth="yes"/>
      <point x="80" y="700" type="line"/>
      <point x="80.0" y="653.6666666666666"/>
      <point x="80.0" y="607.3333333333334"/>
      <point x="80" y="561" type="curve"/>
      <point x="80.0" y="555.0"/>
      <point x="85.0" y="550.0"/>
      <point x="91" y="550" type="curve" smooth="yes"/>
      <point x="104" y="550.0"/>
      <point x="117" y="550.0"/>
    </contour>
    <contour>
      <point x="300" y="711" type="move" name="top"/>
    </contour>
  </outline>
</glyph>
<glyph name="bracketleft" format="1">
  <advance width="400"/>
  <unicode hex="005B"/>
  <outline>
    <contour>
      <point x="64" y="653.0" type="curve" smooth="yes"/>
      <point x="64" y="-112.0" type="line" smooth="yes"/>
      <point x="64" y="-122.0"/>
      <point x="76" y="-123.0"/>
      <point x="114" y="-123.0" type="curve"/>
      <point x="114" y="749.0" type="line" smooth="yes"/>
      <point x="114" y="755.0"/>
      <point x="106" y="760.0"/>
      <point x="80" y="760.0" type="curve" smooth="yes"/>
      <point x="74" y="760.0"/>
      <point x="70" y="760.0"/>
      <point x="64" y="760.0" type="curve"/>
      <point x="64" y="724.0"/>
      <point x="64" y="689.0"/>
    </contour>
    <contour>
      <point x="380" y="710.0" type="line"/>
      <point x="380" y="723.0"/>
      <point x="380" y="736.0"/>
      <point x="380" y="749.0" type="curve" smooth="yes"/>
      <point x="380" y="752.0"/>
      <point x="378" y="755.0"/>
      <point x="376" y="757.0" type="curve" smooth="yes"/>
      <point x="374" y="759.0"/>
      <point x="372" y="760.0"/>
      <point x="368" y="760.0" type="curve" smooth="yes"/>
      <point x="80" y="760.0" type="line"/>
      <point x="80" y="716.0"/>
      <point x="86" y="710.0"/>
      <point x="90" y="710.0" type="curve"/>
    </contour>
    <contour>
      <point x="380" y="-161.0" type="line"/>
      <point x="380" y="-147.0"/>
      <point x="380" y="-136.0"/>
      <point x="380" y="-122.0" type="curve" smooth="yes"/>
      <point x="380" y="-116.0"/>
      <point x="374" y="-111.0"/>
      <point x="368" y="-111.0" type="curve" smooth="yes"/>
      <point x="64" y="-111.0" type="line"/>
      <point x="64" y="-150.0" type="line" smooth="yes"/>
      <point x="64" y="-156.0"/>
      <point x="70" y="-161.0"/>
      <point x="76" y="-161.0" type="curve" smooth="yes"/>
    </contour>
  </outline>
</glyph>
<glyph name="grave" format="1">
  <advance width="350"/>
  <unicode hex="0060"/>
  <outline>
    <contour>
      <point x="263.57056733575496" y="420.0" type="curve"/>
      <point x="239.57056733575496" y="520.0"/>
      <point x="215.57056733575496" y="620.0"/>
      <point x="191.57056733575496" y="720.0" type="curve"/>
      <point x="150.57056733575496" y="720.0"/>
      <point x="130.57056733575496" y="720.0"/>
      <point x="95.57056733575494" y="720.0" type="curve" smooth="yes"/>
      <point x="87.57056733575494" y="720.0"/>
      <point x="84.57056733575494" y="715.0"/>
      <point x="87.57056733575494" y="707.0" type="curve" smooth="yes"/>
      <point x="128.57056733575496" y="614.0"/>
      <point x="169.57056733575496" y="520.0"/>
      <point x="209.57056733575496" y="428.0" type="curve" smooth="yes"/>
      <point x="212.57056733575496" y="421.0"/>
      <point x="215.57056733575496" y="420.0"/>
      <point x="220.57056733575496" y="420.0" type="curve" smooth="yes"/>
      <point x="239.57056733575496" y="420.0"/>
      <point x="251.57056733575496" y="420.0"/>
    </contour>
  </outline>
</glyph>
<glyph name="d" format="1">
  <advance width="600.0"/>
  <unicode hex="0064"/>
  <outline>
    <contour>
      <point x="329.32609875203474" y="536.0" type="curve" smooth="yes"/>
      <point x="207.89690721649484" y="536.0"/>
      <point x="129.84970157352143" y="477.9484536082474"/>
      <point x="85.66521975040695" y="309.3798155181769" type="curve" smooth="yes"/>
      <point x="55.19316332067282" y="191.52360282148672" type="line" smooth="yes"/>
      <point x="42.24253933803581" y="143.90558871405318"/>
      <point x="61.29191535539881" y="69.049376017363"/>
      <point x="84.81551817688552" y="69.049376017363" type="curve" smooth="yes"/>
      <point x="93.81551817688552" y="69.049376017363"/>
      <point x="99.57731958762886" y="70.049376017363"/>
      <point x="102.33912099837222" y="74.049376017363" type="curve"/>
      <point x="93.38632664134563" y="112.09658166033641"/>
      <point x="92.24253933803581" y="142.5729788388497"/>
      <point x="112.049376017363" y="215.4270211611503" type="curve" smooth="yes"/>
      <point x="133.37981551817688" y="302.3798155181769" type="line" smooth="yes"/>
      <point x="169.94628323385783" y="442.8540423223006"/>
      <point x="226.65870862723818" y="490.5236028214867"/>
      <point x="325.46988605534455" y="490.5236028214867" type="curve" smooth="yes"/>
      <point x="395.0428648941942" y="490.5236028214867"/>
      <point x="442.1844818231145" y="458.6180141074335"/>
      <point x="474.4248507867607" y="380.5257731958763" type="curve"/>
      <point x="483.04503526858383" y="380.5257731958763"/>
      <point x="500.75746066196416" y="412.95279435702656"/>
      <point x="495.0428648941942" y="427.42919153553987" type="curve" smooth="yes"/>
      <point x="471.85187194791104" y="487.28540423223006"/>
      <point x="412.4226804123711" y="536.0"/>
    </contour>
    <contour>
      <point x="189.72327726532828" y="-10.0" type="curve" smooth="yes"/>
      <point x="275.05588714053175" y="-10.0"/>
      <point x="333.6266956049919" y="24.476397178513295"/>
      <point x="392.4829083016821" y="76.62018448182312" type="curve" smooth="yes"/>
      <point x="415.2919153553988" y="97.85838307107976"/>
      <point x="425.6717308735757" y="128.0965816603364"/>
      <point x="429.00434074877916" y="162.71459576776994" type="curve"/>
      <point x="332.3884970157352" y="68.42919153553989"/>
      <point x="271.7232772653283" y="35.476397178513295"/>
      <point x="198.48507867607162" y="35.476397178513295" type="curve" smooth="yes"/>
      <point x="118.05588714053175" y="35.476397178513295"/>
      <point x="77.76831253391211" y="107.4270211611503"/>
      <point x="106.71676614215953" y="219.99782962561042" type="curve"/>
      <point x="69.28757460661964" y="216.71242539338036"/>
      <point x="57.478567552902874" y="200.09441128594682"/>
      <point x="55.19316332067282" y="191.52360282148672" type="curve" smooth="yes"/>
      <point x="27.00651112316875" y="77.18882257189365"/>
      <point x="83.43787303309821" y="-10.0"/>
    </contour>
    <contour>
      <point x="561.8882257189365" y="750.0" type="curve"/>
      <point x="552.7466087900162" y="715.0"/>
      <point x="544.3667932718394" y="682.0"/>
      <point x="536.7487791644058" y="650.0" type="curve" smooth="yes"/>
      <point x="374.4850786760716" y="11.0" type="line"/>
      <point x="373.7232772653283" y="8.0"/>
      <point x="373.96147585458493" y="5.0"/>
      <point x="375.19967444384156" y="3.0" type="curve" smooth="yes"/>
      <point x="376.4378730330982" y="1.0"/>
      <point x="379.4378730330982" y="0.0"/>
      <point x="382.4378730330982" y="0.0" type="curve" smooth="yes"/>
      <point x="395.4378730330982" y="0.0"/>
      <point x="408.4378730330982" y="0.0"/>
      <point x="421.4378730330982" y="0.0" type="curve"/>
      <point x="426.7704829083017" y="21.0"/>
      <point x="435.91209983722194" y="56.0"/>
      <point x="446.5773195876289" y="100.0" type="curve" smooth="yes"/>
      <point x="608.8410200759631" y="739.0" type="line"/>
      <point x="609.6028214867065" y="742.0"/>
      <point x="609.3646228974499" y="745.0"/>
      <point x="608.1264243081931" y="747.0" type="curve" smooth="yes"/>
      <point x="606.8882257189365" y="749.0"/>
      <point x="603.8882257189365" y="750.0"/>
      <point x="600.8882257189365" y="750.0" type="curve" smooth="yes"/>
      <point x="587.8882257189365" y="750.0"/>
      <point x="574.8882257189365" y="750.0"/>
    </contour>
  </outline>
</glyph>
<glyph name="m" format="1">
  <advance width="850.0"/>
  <unicode hex="006D"/>
  <outline>
    <contour>
      <point x="91.43787303309821" y="0.0" type="curve"/>
      <point x="222.17613115860823" y="515.0" type="line" smooth="yes"/>
      <point x="222.93771324477626" y="518.0"/>
      <point x="222.6992953309443" y="521.0"/>
      <point x="221.20701672172294" y="523.0" type="curve" smooth="yes"/>
      <point x="219.7147381125016" y="525.0"/>
      <point x="216.968598807891" y="526.0"/>
      <point x="213.968598807891" y="526.0" type="curve" smooth="yes"/>
      <point x="200.968598807891" y="526.0"/>
      <point x="187.968598807891" y="526.0"/>
      <point x="174.968598807891" y="526.0" type="curve"/>
      <point x="170.90682768166153" y="510.0"/>
      <point x="161.76784264764527" y="474.0"/>
      <point x="149.582529268957" y="426.0" type="curve" smooth="yes"/>
      <point x="44.230340682380955" y="11.0" type="line" smooth="yes"/>
      <point x="42.70717651004492" y="5.0"/>
      <point x="46.437873033098214" y="0.0"/>
      <point x="52.437873033098214" y="0.0" type="curve" smooth="yes"/>
      <point x="65.43787303309821" y="0.0"/>
      <point x="78.43787303309821" y="0.0"/>
    </contour>
    <contour>
      <point x="389.753119913185" y="536.0" type="curve" smooth="yes"/>
      <point x="319.753119913185" y="536.0"/>
      <point x="259.3733043950081" y="498.14161692892026"/>
      <point x="200.42268041237114" y="438.5236028214867" type="curve" smooth="yes"/>
      <point x="178.851871947911" y="417.2381985892566"/>
      <point x="166.4488914245913" y="391.9289904114864"/>
      <point x="166.18665219750406" y="348.1437873033098" type="curve"/>
      <point x="258.94628323385786" y="450.95279435702656"/>
      <point x="318.08347446926405" y="490.5236028214867"/>
      <point x="379.08347446926405" y="490.5236028214867" type="curve" smooth="yes"/>
      <point x="423.0834744692641" y="490.5236028214867"/>
      <point x="449.7378343828319" y="455.08858981445326"/>
      <point x="431.96758570557813" y="388.049376017363" type="curve"/>
      <point x="474.45290935414914" y="390.04831365950207"/>
      <point x="479.7102550189908" y="390.2875746066196"/>
      <point x="482.75746066196416" y="399.3819858925665" type="curve" smooth="yes"/>
      <point x="499.5170916983179" y="467.5729788388497"/>
      <point x="462.18231144872493" y="536.0"/>
    </contour>
    <contour>
      <point x="381.4378730330982" y="0.0" type="curve"/>
      <point x="482.75746066196416" y="399.3819858925665" type="line"/>
      <point x="488.85187194791104" y="424.1437873033098"/>
      <point x="484.7060715214159" y="457.5236028214867"/>
      <point x="447.7060715214159" y="457.5236028214867" type="curve"/>
      <point x="439.8363899643463" y="429.54515192620727"/>
      <point x="431.4589870164981" y="399.73929844114326"/>
      <point x="424.3508875455966" y="374.33695062398266" type="curve" smooth="yes"/>
      <point x="334.2303406823809" y="11.0" type="line" smooth="yes"/>
      <point x="332.7071765100449" y="5.0"/>
      <point x="336.4378730330982" y="0.0"/>
      <point x="342.4378730330982" y="0.0" type="curve" smooth="yes"/>
      <point x="355.4378730330982" y="0.0"/>
      <point x="368.4378730330982" y="0.0"/>
    </contour>
    <contour>
      <point x="674.7531199131851" y="536.0" type="curve" smooth="yes"/>
      <point x="604.7531199131851" y="536.0"/>
      <point x="547.4893415740299" y="504.9325259214395"/>
      <point x="489.2316874660879" y="450.04720564297344" type="curve" smooth="yes"/>
      <point x="466.92610044616436" y="429.5538048362113"/>
      <point x="454.340102522949" y="401.2965999213225"/>
      <point x="447.09702685020727" y="365.0" type="curve"/>
      <point x="544.1400359211274" y="451.33545724779003"/>
      <point x="603.798070237034" y="490.5236028214867"/>
      <point x="664.0834744692642" y="490.5236028214867" type="curve" smooth="yes"/>
      <point x="710.0834744692642" y="490.5236028214867"/>
      <point x="739.7378343828319" y="455.08858981445326"/>
      <point x="721.9675857055781" y="388.049376017363" type="curve"/>
      <point x="764.4529093541491" y="390.04831365950207"/>
      <point x="769.7102550189908" y="390.2875746066196"/>
      <point x="772.7574606619642" y="399.3819858925665" type="curve" smooth="yes"/>
      <point x="789.5170916983179" y="467.81117742810636"/>
      <point x="749.9441128594683" y="536.0"/>
    </contour>
    <contour>
      <point x="671.4378730330982" y="0.0" type="curve"/>
      <point x="680.5768580671145" y="36.0"/>
      <point x="688.9593054801953" y="68.0"/>
      <point x="696.3162211812535" y="98.0" type="curve" smooth="yes"/>
      <point x="772.7574606619642" y="399.3819858925665" type="line"/>
      <point x="778.851871947911" y="424.1437873033098"/>
      <point x="774.7060715214159" y="457.5236028214867"/>
      <point x="737.7060715214159" y="457.5236028214867" type="curve"/>
      <point x="729.5825292689569" y="428.7330153925236"/>
      <point x="721.7128477118874" y="400.8551788359168"/>
      <point x="713.5893054594286" y="372.0515463917526" type="curve" smooth="yes"/>
      <point x="624.230340682381" y="11.0" type="line" smooth="yes"/>
      <point x="622.707176510045" y="5.0"/>
      <point x="626.4378730330982" y="0.0"/>
      <point x="632.4378730330982" y="0.0" type="curve" smooth="yes"/>
      <point x="645.4378730330982" y="0.0"/>
      <point x="658.4378730330982" y="0.0"/>
    </contour>
  </outline>
</glyph>
<glyph name="r" format="1">
  <advance width="450.0"/>
  <unicode hex="0072"/>
  <outline>
    <contour>
      <point x="91.43787303309821" y="0.0" type="curve"/>
      <point x="222.17613115860823" y="515.0" type="line" smooth="yes"/>
      <point x="222.93771324477626" y="518.0"/>
      <point x="222.6992953309443" y="521.0"/>
      <point x="221.20701672172294" y="523.0" type="curve" smooth="yes"/>
      <point x="219.7147381125016" y="525.0"/>
      <point x="216.968598807891" y="526.0"/>
      <point x="213.968598807891" y="526.0" type="curve" smooth="yes"/>
      <point x="200.968598807891" y="526.0"/>
      <point x="187.968598807891" y="526.0"/>
      <point x="174.968598807891" y="526.0" type="curve"/>
      <point x="170.90682768166153" y="510.0"/>
      <point x="161.76784264764527" y="474.0"/>
      <point x="149.582529268957" y="426.0" type="curve" smooth="yes"/>
      <point x="44.230340682380955" y="11.0" type="line" smooth="yes"/>
      <point x="42.70717651004492" y="5.0"/>
      <point x="46.437873033098214" y="0.0"/>
      <point x="52.437873033098214" y="0.0" type="curve" smooth="yes"/>
      <point x="65.43787303309821" y="0.0"/>
      <point x="78.43787303309821" y="0.0"/>
    </contour>
    <contour>
      <point x="161.3776451437873" y="328.1931633206728" type="curve"/>
      <point x="286.46988605534455" y="458.4763971785133"/>
      <point x="347.32609875203474" y="478.5236028214867"/>
      <point x="412.32609875203474" y="478.5236028214867" type="curve" smooth="yes"/>
      <point x="430.32609875203474" y="478.5236028214867"/>
      <point x="448.32609875203474" y="478.5236028214867"/>
      <point x="464.32609875203474" y="478.5236028214867" type="curve"/>
      <point x="470.32609875203474" y="478.5236028214867" type="line"/>
      <point x="473.3733043950081" y="491.7618014107434"/>
      <point x="477.18231144872493" y="506.7618014107434"/>
      <point x="480.2295170916983" y="520.0" type="curve"/>
      <point x="482.5149213239284" y="527.0"/>
      <point x="479.2767227346717" y="531.0"/>
      <point x="472.2767227346717" y="531.0" type="curve" smooth="yes"/>
      <point x="421.3733043950081" y="531.0" type="line" smooth="yes"/>
      <point x="339.3733043950081" y="531.0"/>
      <point x="278.3733043950081" y="500.0"/>
      <point x="198.37547476939773" y="422.19099294628325" type="curve" smooth="yes"/>
      <point x="174.8046663049376" y="399.42919153553987"/>
      <point x="161.66304937601737" y="375.0"/>
    </contour>
  </outline>
</glyph>
<glyph name="v" format="1">
  <advance width="600.0"/>
  <unicode hex="0076"/>
  <outline>
    <contour>
      <point x="567.2338578404775" y="526.0" type="curve" smooth="yes"/>
      <point x="524.2338578404775" y="526.0" type="line"/>
      <point x="417.33478024959305" y="359.0"/>
      <point x="309.91209983722194" y="193.0"/>
      <point x="202.77482365708084" y="26.0" type="curve"/>
      <point x="193.9658166033641" y="11.0"/>
      <point x="189.4422137818774" y="6.0"/>
      <point x="176.1096039066739" y="0.0" type="curve"/>
      <point x="239.91861096039068" y="0.0" type="line"/>
      <point x="350.57948996201844" y="172.0"/>
      <point x="460.7639717851329" y="343.0"/>
      <point x="571.9484536082474" y="515.0" type="curve"/>
      <point x="576.4720564297342" y="522.0"/>
      <point x="572.2338578404775" y="526.0"/>
    </contour>
    <contour>
      <point x="133.23385784047747" y="526.0" type="curve" smooth="yes"/>
      <point x="84.23385784047748" y="526.0" type="line"/>
      <point x="107.81117742810635" y="354.0"/>
      <point x="131.15029842647857" y="183.0"/>
      <point x="154.9658166033641" y="11.0" type="curve"/>
      <point x="155.68041237113403" y="3.0"/>
      <point x="159.91861096039068" y="0.0"/>
      <point x="164.91861096039068" y="0.0" type="curve" smooth="yes"/>
      <point x="181.06239826370052" y="0.0" type="line" smooth="yes"/>
      <point x="203.91861096039068" y="0.0"/>
      <point x="247.72761801410743" y="15.0"/>
      <point x="259.345632121541" y="45.476397178513295" type="curve"/>
      <point x="242.34563212154097" y="45.476397178513295"/>
      <point x="226.34563212154097" y="45.476397178513295"/>
      <point x="209.34563212154097" y="45.476397178513295" type="curve" smooth="yes"/>
      <point x="204.34563212154097" y="45.476397178513295"/>
      <point x="203.10743353228435" y="47.476397178513295"/>
      <point x="201.86923494302766" y="52.476397178513295" type="curve"/>
      <point x="181.2447097124254" y="209.23819858925665"/>
      <point x="160.0965816603364" y="363.2381985892566"/>
      <point x="139.71025501899078" y="520.0" type="curve"/>
      <point x="139.23385784047747" y="525.0"/>
      <point x="137.23385784047747" y="526.0"/>
    </contour>
  </outline>
</glyph>
<glyph name="x" format="1">
  <advance width="600.0"/>
  <unicode hex="0078"/>
  <outline>
    <contour>
      <point x="408.81768855127507" y="0.0" type="curve" smooth="yes"/>
      <point x="424.81768855127507" y="0.0"/>
      <point x="436.4850786760716" y="0.0"/>
      <point x="452.4850786760716" y="0.0" type="curve"/>
      <point x="409.8155181768855" y="91.0"/>
      <point x="367.1459576776994" y="181.0"/>
      <point x="324.4763971785133" y="272.0" type="curve" smooth="yes"/>
      <point x="321.0" y="279.0"/>
      <point x="317.5236028214867" y="286.0"/>
      <point x="314.80900705371675" y="293.0" type="curve" smooth="yes"/>
      <point x="280.3304395008139" y="366.0"/>
      <point x="245.61367335865435" y="440.0"/>
      <point x="210.89690721649484" y="513.0" type="curve" smooth="yes"/>
      <point x="207.42051003798156" y="520.0"/>
      <point x="201.94411285946825" y="526.0"/>
      <point x="192.94411285946825" y="526.0" type="curve" smooth="yes"/>
      <point x="175.94411285946825" y="526.0"/>
      <point x="165.80032555615844" y="526.0"/>
      <point x="148.80032555615844" y="526.0" type="curve"/>
      <point x="190.7080846446012" y="437.0"/>
      <point x="232.3776451437873" y="349.0"/>
      <point x="274.28540423223006" y="260.0" type="curve" smooth="yes"/>
      <point x="277.0" y="253.0"/>
      <point x="280.2381985892566" y="248.0"/>
      <point x="282.95279435702656" y="241.0" type="curve" smooth="yes"/>
      <point x="318.4313619099295" y="165.0"/>
      <point x="354.14812805208896" y="89.0"/>
      <point x="389.8648941942485" y="13.0" type="curve" smooth="yes"/>
      <point x="393.1030927835052" y="6.0"/>
      <point x="398.81768855127507" y="0.0"/>
    </contour>
    <contour>
      <point x="563.8475311991318" y="526.0" type="curve" smooth="yes"/>
      <point x="515.9913185024417" y="526.0" type="line"/>
      <point x="443.1844818231145" y="448.0"/>
      <point x="371.13944655453065" y="371.0"/>
      <point x="298.33260987520345" y="293.0" type="curve" smooth="yes"/>
      <point x="291.04720564297344" y="286.0"/>
      <point x="282.57080846446013" y="291.0"/>
      <point x="276.04720564297344" y="284.0" type="curve" smooth="yes"/>
      <point x="193.95496473141617" y="198.0"/>
      <point x="113.62452523060227" y="113.0"/>
      <point x="31.53228431904504" y="27.0" type="curve" smooth="yes"/>
      <point x="23.246880086814983" y="19.0"/>
      <point x="18.723277265328278" y="14.0"/>
      <point x="17.199674443841573" y="9.0" type="curve" smooth="yes"/>
      <point x="15.676071622354868" y="3.0"/>
      <point x="19.67607162235487" y="0.0"/>
      <point x="27.67607162235487" y="0.0" type="curve" smooth="yes"/>
      <point x="75.8176885512751" y="0.0" type="line"/>
      <point x="150.86272381985893" y="80.23819858925664"/>
      <point x="226.19316332067282" y="160.52360282148672"/>
      <point x="301.4763971785133" y="241.0" type="curve" smooth="yes"/>
      <point x="307.0" y="247.0"/>
      <point x="318.0" y="245.0"/>
      <point x="323.5236028214867" y="251.0" type="curve" smooth="yes"/>
      <point x="404.8540423223006" y="336.0"/>
      <point x="486.94628323385786" y="422.0"/>
      <point x="567.2767227346717" y="506.0" type="curve" smooth="yes"/>
      <point x="571.0385241454151" y="510.2381985892566"/>
      <point x="573.5621269669018" y="514.0"/>
      <point x="574.3239283776452" y="517.0" type="curve" smooth="yes"/>
      <point x="575.8475311991318" y="524.0"/>
      <point x="569.8475311991318" y="526.0"/>
    </contour>
  </outline>
</glyph>
<glyph name="z" format="1">
  <advance width="550.0"/>
  <unicode hex="007A"/>
  <outline>
    <contour>
      <point x="146.968598807891" y="526.0" type="line"/>
      <point x="144.09151092681176" y="514.5078676071622"/>
      <point x="141.2144230457326" y="503.0157352143245"/>
      <point x="138.3373351646534" y="491.5236028214867" type="curve" smooth="yes"/>
      <point x="137.57575307848538" y="488.5236028214867"/>
      <point x="137.81417099231737" y="485.5236028214867"/>
      <point x="139.3064496015387" y="483.5236028214867" type="curve" smooth="yes"/>
      <point x="140.79872821076003" y="481.5236028214867"/>
      <point x="143.54486751537067" y="480.5236028214867"/>
      <point x="146.54486751537067" y="480.5236028214867" type="curve" smooth="yes"/>
      <point x="471.32609875203474" y="480.5236028214867" type="line" smooth="yes"/>
      <point x="483.32609875203474" y="480.5236028214867"/>
      <point x="514.5448675153707" y="480.5236028214867"/>
      <point x="521.5448675153707" y="480.5236028214867" type="curve"/>
      <point x="530.1761311586082" y="515.0" type="line" smooth="yes"/>
      <point x="530.9377132447762" y="518.0"/>
      <point x="530.6992953309443" y="521.0"/>
      <point x="529.207016721723" y="523.0" type="curve" smooth="yes"/>
      <point x="527.7147381125017" y="525.0"/>
      <point x="524.968598807891" y="526.0"/>
      <point x="521.968598807891" y="526.0" type="curve" smooth="yes"/>
    </contour>
    <contour>
      <point x="484.2788931090613" y="508.0" type="curve"/>
      <point x="331.2360282148671" y="354.0"/>
      <point x="177.90775908844276" y="199.47639717851328"/>
      <point x="24.864894194248514" y="45.476397178513295" type="curve"/>
      <point x="18.008681497558335" y="18.523602821486705"/>
      <point x="57.10309278350516" y="14.523602821486707"/>
      <point x="74.91209983722192" y="32.0" type="curve" smooth="yes"/>
      <point x="230.76397178513292" y="186.76180141074335"/>
      <point x="521.2898709779438" y="479.5201943140561"/>
      <point x="521.5448675153707" y="480.5236028214867" type="curve"/>
      <point x="526.5082818010864" y="500.420304226617"/>
      <point x="510.2788931090613" y="508.0"/>
    </contour>
    <contour>
      <point x="399.4378730330982" y="0.0" type="line"/>
      <point x="402.3149609141774" y="11.492132392837764"/>
      <point x="405.1920487952566" y="22.98426478567553"/>
      <point x="408.06913667633575" y="34.476397178513295" type="curve"/>
      <point x="409.5923008486718" y="40.476397178513295"/>
      <point x="405.8616043256185" y="45.476397178513295"/>
      <point x="399.8616043256185" y="45.476397178513295" type="curve" smooth="yes"/>
      <point x="75.86160432561852" y="45.476397178513295" type="line" smooth="yes"/>
      <point x="56.861604325618515" y="45.476397178513295"/>
      <point x="46.861604325618515" y="45.476397178513295"/>
      <point x="24.861604325618515" y="45.476397178513295" type="curve"/>
      <point x="16.230340682380955" y="11.0" type="line" smooth="yes"/>
      <point x="15.468758596212936" y="8.0"/>
      <point x="15.707176510044917" y="5.0"/>
      <point x="17.199455119266233" y="3.0" type="curve" smooth="yes"/>
      <point x="18.691733728487563" y="1.0"/>
      <point x="21.437873033098214" y="0.0"/>
      <point x="24.437873033098214" y="0.0" type="curve" smooth="yes"/>
    </contour>
  </outline>
</glyph>
<glyph name="braceleft" format="1">
  <advance width="500"/>
  <unicode hex="007B"/>
  <outline>
    <contour>
      <point x="305" y="710" type="curve" smooth="yes"/>
      <point x="357" y="710"/>
      <point x="409" y="710"/>
      <point x="461" y="710" type="curve"/>
      <point x="481" y="710" type="line"/>
      <point x="481" y="723"/>
      <point x="481" y="736"/>
      <point x="481" y="749" type="curve"/>
      <point x="481" y="756"/>
      <point x="477" y="760"/>
      <point x="470" y="760" type="curve" smooth="yes"/>
      <point x="303" y="760" type="line" smooth="yes"/>
      <point x="226" y="760"/>
      <point x="200" y="702"/>
      <point x="200" y="667" type="curve" smooth="yes"/>
      <point x="200" y="663" type="line" smooth="yes"/>
      <point x="200" y="653"/>
      <point x="209" y="652"/>
      <point x="246" y="652" type="curve"/>
      <point x="253" y="692"/>
      <point x="269" y="710"/>
    </contour>
    <contour>
      <point x="331" y="449" type="curve" smooth="yes"/>
      <point x="331" y="536"/>
      <point x="250" y="569"/>
      <point x="250" y="625" type="curve" smooth="yes"/>
      <point x="250" y="646"/>
      <point x="250" y="669"/>
      <point x="250" y="690" type="curve"/>
      <point x="204" y="677"/>
      <point x="200" y="673"/>
      <point x="200" y="667" type="curve" smooth="yes"/>
      <point x="200" y="613" type="line" smooth="yes"/>
      <point x="200" y="544"/>
      <point x="281" y="517"/>
      <point x="281" y="446" type="curve" smooth="yes"/>
      <point x="281" y="372"/>
      <point x="197" y="325"/>
      <point x="69" y="325" type="curve" smooth="yes"/>
      <point x="37" y="325" type="line"/>
      <point x="37" y="293" type="line" smooth="yes"/>
      <point x="37" y="284"/>
      <point x="46" y="277"/>
      <point x="55" y="277" type="curve" smooth="yes"/>
      <point x="69" y="277" type="line" smooth="yes"/>
      <point x="221" y="277"/>
      <point x="331" y="346"/>
    </contour>
    <contour>
      <point x="331" y="149" type="curve" smooth="yes"/>
      <point x="331" y="252"/>
      <point x="226" y="323"/>
      <point x="69" y="323" type="curve" smooth="yes"/>
      <point x="58" y="323"/>
      <point x="48" y="323"/>
      <point x="37" y="323" type="curve"/>
      <point x="37" y="286" type="line" smooth="yes"/>
      <point x="37" y="279"/>
      <point x="41" y="275"/>
      <point x="48" y="275" type="curve" smooth="yes"/>
      <point x="69" y="275" type="line" smooth="yes"/>
      <point x="197" y="275"/>
      <point x="281" y="226"/>
      <point x="281" y="152" type="curve" smooth="yes"/>
      <point x="281" y="81"/>
      <point x="200" y="55"/>
      <point x="200" y="-14" type="curve" smooth="yes"/>
      <point x="200" y="-68" type="line" smooth="yes"/>
      <point x="200" y="-73"/>
      <point x="206" y="-78"/>
      <point x="250" y="-87" type="curve"/>
      <point x="250" y="-67"/>
      <point x="250" y="-46"/>
      <point x="250" y="-26" type="curve" smooth="yes"/>
      <point x="250" y="30"/>
      <point x="331" y="62"/>
    </contour>
    <contour>
      <point x="305" y="-111" type="curve" smooth="yes"/>
      <point x="269" y="-111"/>
      <point x="253" y="-93"/>
      <point x="246" y="-53" type="curve"/>
      <point x="209" y="-53"/>
      <point x="200" y="-54"/>
      <point x="200" y="-64" type="curve" smooth="yes"/>
      <point x="200" y="-68" type="line" smooth="yes"/>
      <point x="200" y="-103"/>
      <point x="226" y="-161"/>
      <point x="303" y="-161" type="curve" smooth="yes"/>
      <point x="470" y="-161" type="line" smooth="yes"/>
      <point x="477" y="-161"/>
      <point x="481" y="-157"/>
      <point x="481" y="-150" type="curve"/>
      <point x="481" y="-111" type="line"/>
      <point x="461" y="-111" type="line"/>
      <point x="409" y="-111"/>
      <point x="357" y="-111"/>
    </contour>
  </outline>
</glyph>
<glyph name="bar" format="1">
  <advance width="300"/>
  <unicode hex="007C"/>
  <outline>
    <contour>
      <point x="125.0" y="760.0" type="curve"/>
      <point x="125.0" y="727.0"/>
      <point x="125.0" y="694.0"/>
      <point x="125.0" y="661.0" type="curve" smooth="yes"/>
      <point x="125.0" y="-150.0" type="line" smooth="yes"/>
      <point x="125.0" y="-156.0"/>
      <point x="130.0" y="-161.0"/>
      <point x="136.0" y="-161.0" type="curve" smooth="yes"/>
      <point x="149.0" y="-161.0"/>
      <point x="162.0" y="-161.0"/>
      <point x="175.0" y="-161.0" type="curve"/>
      <point x="175.0" y="749.0" type="line" smooth="yes"/>
      <point x="175.0" y="752.0"/>
      <point x="174.0" y="755.0"/>
      <point x="172.0" y="757.0" type="curve" smooth="yes"/>
      <point x="170.0" y="759.0"/>
      <point x="167.0" y="760.0"/>
      <point x="164.0" y="760.0" type="curve" smooth="yes"/>
      <point x="151.0" y="760.0"/>
      <point x="138.0" y="760.0"/>
    </contour>
  </outline>
</glyph>
<glyph name="brokenbar" format="1">
  <advance width="300"/>
  <unicode hex="00A6"/>
  <outline>
    <contour>
      <point x="125" y="760" type="curve"/>
      <point x="125" y="727"/>
      <point x="125" y="694"/>
      <point x="125" y="661" type="curve" smooth="yes"/>
      <point x="125" y="380" type="line" smooth="yes"/>
      <point x="125" y="374"/>
      <point x="130" y="369"/>
      <point x="136" y="369" type="curve" smooth="yes"/>
      <point x="149" y="369"/>
      <point x="162" y="369"/>
      <point x="175" y="369" type="curve"/>
      <point x="175" y="749" type="line" smooth="yes"/>
      <point x="175" y="752"/>
      <point x="174" y="755"/>
      <point x="172" y="757" type="curve" smooth="yes"/>
      <point x="170" y="759"/>
      <point x="167" y="760"/>
      <point x="164" y="760" type="curve" smooth="yes"/>
      <point x="151" y="760"/>
      <point x="138" y="760"/>
    </contour>
    <contour>
      <point x="125" y="231" type="curve"/>
      <point x="125" y="-149" type="line"/>
      <point x="125" y="-155"/>
      <point x="130" y="-160"/>
      <point x="136" y="-160" type="curve" smooth="yes"/>
      <point x="149" y="-160"/>
      <point x="162" y="-160"/>
      <point x="175" y="-160" type="curve"/>
      <point x="175" y="220" type="line" smooth="yes"/>
      <point x="175" y="227"/>
      <point x="171" y="231"/>
      <point x="164" y="231" type="curve" smooth="yes"/>
      <point x="151" y="231"/>
      <point x="138" y="231"/>
    </contour>
  </outline>
</glyph>
<glyph name="AE" format="1">
  <advance width="800"/>
  <unicode hex="00C6"/>
  <outline>
    <contour>
      <point x="66" y="0" type="curve"/>
      <point x="168" y="216"/>
      <point x="281" y="458"/>
      <point x="375" y="659" type="curve" smooth="yes"/>
      <point x="384" y="679"/>
      <point x="399" y="690"/>
      <point x="434" y="700" type="curve"/>
      <point x="335" y="700" type="line"/>
      <point x="240" y="492"/>
      <point x="115" y="222"/>
      <point x="17" y="13" type="curve" smooth="yes"/>
      <point x="12" y="3"/>
      <point x="21" y="0"/>
      <point x="25" y="0" type="curve" smooth="yes"/>
      <point x="40" y="0"/>
      <point x="51" y="0"/>
    </contour>
    <contour>
      <point x="446" y="0" type="curve"/>
      <point x="446" y="230"/>
      <point x="446" y="462"/>
      <point x="446" y="689" type="curve" smooth="yes"/>
      <point x="446" y="695"/>
      <point x="441" y="700"/>
      <point x="434" y="700" type="curve"/>
      <point x="378" y="700"/>
      <point x="356" y="677"/>
      <point x="356" y="653" type="curve"/>
      <point x="392" y="653" type="line"/>
      <point x="396" y="653"/>
      <point x="400" y="651"/>
      <point x="400" y="643" type="curve" smooth="yes"/>
      <point x="400" y="436"/>
      <point x="400" y="222"/>
      <point x="400" y="8" type="curve" smooth="yes"/>
      <point x="400" y="1"/>
      <point x="405" y="0"/>
      <point x="411" y="0" type="curve" smooth="yes"/>
      <point x="425" y="0"/>
      <point x="432" y="0"/>
    </contour>
    <contour>
      <point x="146" y="260" type="line"/>
      <point x="146" y="224" type="line"/>
      <point x="146" y="216"/>
      <point x="150" y="213"/>
      <point x="157" y="213" type="curve"/>
      <point x="416" y="213" type="line"/>
      <point x="416" y="249" type="line"/>
      <point x="416" y="255"/>
      <point x="411" y="260"/>
      <point x="405" y="260" type="curve"/>
    </contour>
    <contour>
      <point x="402" y="700" type="line"/>
      <point x="402" y="664" type="line"/>
      <point x="402" y="658"/>
      <point x="407.0" y="653.0"/>
      <point x="413" y="653" type="curve" smooth="yes"/>
      <point x="740" y="653" type="line"/>
      <point x="740" y="665"/>
      <point x="740" y="677"/>
      <point x="740" y="689" type="curve" smooth="yes"/>
      <point x="740" y="692"/>
      <point x="739" y="695"/>
      <point x="737" y="697" type="curve" smooth="yes"/>
      <point x="735" y="699"/>
      <point x="732" y="700"/>
      <point x="729" y="700" type="curve"/>
    </contour>
    <contour>
      <point x="412" y="373" type="line"/>
      <point x="412" y="337" type="line"/>
      <point x="412" y="330"/>
      <point x="416.0" y="326.0"/>
      <point x="423" y="326" type="curve" smooth="yes"/>
      <point x="700" y="326" type="line"/>
      <point x="700" y="339"/>
      <point x="700" y="349"/>
      <point x="700" y="362" type="curve" smooth="yes"/>
      <point x="700" y="369"/>
      <point x="696" y="373"/>
      <point x="689" y="373" type="curve"/>
    </contour>
    <contour>
      <point x="430" y="47" type="line"/>
      <point x="430" y="11" type="line" smooth="yes"/>
      <point x="430" y="5"/>
      <point x="435.0" y="0"/>
      <point x="441" y="0" type="curve" smooth="yes"/>
      <point x="740" y="0" type="line"/>
      <point x="740" y="12"/>
      <point x="740" y="23"/>
      <point x="740" y="36" type="curve" smooth="yes"/>
      <point x="740" y="42"/>
      <point x="735" y="47"/>
      <point x="729" y="47" type="curve" smooth="yes"/>
    </contour>
    <contour>
      <point x="424" y="711" type="move" name="top"/>
    </contour>
  </outline>
</glyph>
<glyph name="germandbls" format="1">
  <advance width="600"/>
  <unicode hex="00DF"/>
  <outline>
    <contour>
      <point x="161" y="631" type="curve"/>
      <point x="124.0" y="631.0"/>
      <point x="111" y="609.7272727272727"/>
      <point x="111" y="566" type="curve" smooth="yes"/>
      <point x="111" y="11" type="line" smooth="yes"/>
      <point x="111" y="5"/>
      <point x="116" y="0"/>
      <point x="122" y="0" type="curve"/>
      <point x="135" y="0.0"/>
      <point x="148" y="0.0"/>
      <point x="161" y="0" type="curve"/>
      <point x="161.0" y="33"/>
      <point x="161.0" y="66"/>
      <point x="161" y="99" type="curve"/>
      <point x="161" y="560" type="line"/>
      <point x="161.0" y="592.7692307692307"/>
      <point x="161.0" y="607.1744966442953"/>
    </contour>
    <contour>
      <point x="313" y="760.0" type="curve" smooth="yes"/>
      <point x="179.0" y="760.0"/>
      <point x="111.0" y="674.5978260869565"/>
      <point x="111" y="566" type="curve" smooth="yes"/>
      <point x="111.0" y="564.125"/>
      <point x="119.0" y="560.0"/>
      <point x="161" y="560" type="curve"/>
      <point x="161" y="660.0"/>
      <point x="212.0" y="713.0"/>
      <point x="312" y="713" type="curve" smooth="yes"/>
      <point x="416" y="713"/>
      <point x="447" y="674"/>
      <point x="447" y="624" type="curve"/>
      <point x="447" y="613"/>
      <point x="447" y="602"/>
      <point x="447" y="587" type="curve"/>
      <point x="482.0" y="587.0"/>
      <point x="497.0" y="604.0"/>
      <point x="497" y="629" type="curve" smooth="yes"/>
      <point x="497" y="726"/>
      <point x="405" y="760"/>
    </contour>
    <contour>
      <point x="284" y="377" type="line" smooth="yes"/>
      <point x="284" y="354.4054054054054"/>
      <point x="305.0" y="339.0"/>
      <point x="334" y="339" type="curve"/>
      <point x="334" y="356"/>
      <point x="334" y="365"/>
      <point x="334" y="381" type="curve" smooth="yes"/>
      <point x="334.0" y="408.0"/>
      <point x="348" y="430"/>
      <point x="388" y="465" type="curve" smooth="yes"/>
      <point x="428" y="500" type="line" smooth="yes"/>
      <point x="481" y="546.0"/>
      <point x="497.0" y="584.0"/>
      <point x="497" y="623" type="curve" smooth="yes"/>
      <point x="497" y="629" type="line" smooth="yes"/>
      <point x="497.0" y="643.0"/>
      <point x="482.0" y="658.0"/>
      <point x="447" y="658" type="curve"/>
      <point x="447.0" y="643"/>
      <point x="447.0" y="635"/>
      <point x="447" y="624" type="curve" smooth="yes"/>
      <point x="447.0" y="591"/>
      <point x="437" y="569"/>
      <point x="399" y="537" type="curve" smooth="yes"/>
      <point x="346" y="492" type="line" smooth="yes"/>
      <point x="300.95884482803405" y="453.7575097596515"/>
      <point x="284" y="417.3818181818182"/>
      <point x="284" y="384" type="curve" smooth="yes"/>
    </contour>
    <contour>
      <point x="430" y="290" type="curve" smooth="yes"/>
      <point x="387" y="312" type="line" smooth="yes"/>
      <point x="345.8585924244669" y="333.04909224794716"/>
      <point x="334.0" y="347.48571428571427"/>
      <point x="334.0" y="381" type="curve" smooth="yes"/>
      <point x="334.0" y="405.57142857142856"/>
      <point x="334.0" y="406.4090909090909"/>
      <point x="334" y="424" type="curve"/>
      <point x="306.0" y="424.0"/>
      <point x="284.0" y="404.81632653061223"/>
      <point x="284" y="377" type="curve" smooth="yes"/>
      <point x="284.0" y="339.5454545454545"/>
      <point x="296" y="305"/>
      <point x="359" y="274" type="curve" smooth="yes"/>
      <point x="393" y="257" type="line" smooth="yes"/>
      <point x="472" y="217"/>
      <point x="482.0" y="180.53068689879422"/>
      <point x="482" y="137" type="curve"/>
      <point x="482.0" y="121.30232558139535"/>
      <point x="482.0" y="107.69767441860465"/>
      <point x="482" y="92" type="curve"/>
      <point x="508.99860477062975" y="91.00005167516186"/>
      <point x="532.0" y="108.34615384615384"/>
      <point x="532.0" y="142" type="curve" smooth="yes"/>
      <point x="532.0" y="204.23648648648648"/>
      <point x="508" y="250"/>
    </contour>
    <contour>
      <point x="379" y="39" type="curve" smooth="yes"/>
      <point x="316" y="39"/>
      <point x="291" y="52"/>
      <point x="253" y="89" type="curve"/>
      <point x="241" y="89" type="line"/>
      <point x="241" y="80"/>
      <point x="241" y="62"/>
      <point x="241" y="45" type="curve" smooth="yes"/>
      <point x="241" y="41"/>
      <point x="242" y="39"/>
      <point x="244" y="37" type="curve" smooth="yes"/>
      <point x="264" y="17"/>
      <point x="304" y="-8"/>
      <point x="377" y="-8" type="curve" smooth="yes"/>
      <point x="470.0" y="-8.0"/>
      <point x="532" y="46.241379310344826"/>
      <point x="532" y="135" type="curve" smooth="yes"/>
      <point x="532" y="142" type="line" smooth="yes"/>
      <point x="532" y="163.11111111111111"/>
      <point x="512.0" y="180.0"/>
      <point x="482" y="180" type="curve"/>
      <point x="482.0" y="163.75555555555556"/>
      <point x="482.0" y="153.24444444444444"/>
      <point x="482" y="137" type="curve" smooth="yes"/>
      <point x="482.0" y="77.79166666666667"/>
      <point x="447.0" y="39.0"/>
    </contour>
  </outline>
</glyph>
<glyph name="oslash" format="1">
  <advance width="600"/>
  <unicode hex="00F8"/>
  <outline>
    <contour>
      <point x="490" y="582.0" type="curve"/>
      <point x="475" y="582.0"/>
      <point x="471" y="582.0"/>
      <point x="450" y="582.0" type="curve" smooth="yes"/>
      <point x="438" y="582.0"/>
      <point x="435" y="580.0"/>
      <point x="426" y="562.0" type="curve" smooth="yes"/>
      <point x="358" y="430.0"/>
      <point x="251" y="220.0"/>
      <point x="165" y="51.0" type="curve"/>
      <point x="168" y="46.0"/>
      <point x="178" y="41.0"/>
      <point x="186" y="41.0" type="curve" smooth="yes"/>
      <point x="208" y="41.0"/>
      <point x="212" y="44"/>
      <point x="215" y="50" type="curve" smooth="yes"/>
      <point x="227" y="74"/>
      <point x="348" y="307.0"/>
    </contour>
    <contour>
      <point x="158" y="37" type="curve"/>
      <point x="144" y="11"/>
      <point x="128" y="-20.0"/>
      <point x="110" y="-56.0" type="curve"/>
      <point x="120" y="-56.0"/>
      <point x="138" y="-56.0"/>
      <point x="150" y="-56.0" type="curve" smooth="yes"/>
      <point x="158" y="-56.0"/>
      <point x="160" y="-55"/>
      <point x="165" y="-46" type="curve"/>
      <point x="182" y="-14"/>
      <point x="190" y="1.0"/>
      <point x="206" y="32.0" type="curve"/>
      <point x="177" y="58.0"/>
      <point x="168" y="57"/>
    </contour>
    <component base="o"/>
    <contour>
      <point x="300" y="557" type="move" name="top"/>
    </contour>
  </outline>
</glyph>
<glyph name="dotlessi" format="1">
  <advance width="350"/>
  <unicode hex="0131"/>
  <outline>
    <contour>
      <point x="50" y="526" type="curve"/>
      <point x="50" y="513"/>
      <point x="50" y="503"/>
      <point x="50" y="490" type="curve" smooth="yes"/>
      <point x="50" y="484"/>
      <point x="55" y="479"/>
      <point x="61" y="479" type="curve" smooth="yes"/>
      <point x="106" y="479"/>
      <point x="176" y="479"/>
      <point x="203" y="479" type="curve"/>
      <point x="203" y="513"/>
      <point x="198" y="526"/>
      <point x="192" y="526" type="curve" smooth="yes"/>
      <point x="136" y="526"/>
      <point x="106" y="526"/>
    </contour>
    <contour>
      <point x="220" y="0" type="curve"/>
      <point x="220" y="38"/>
      <point x="220" y="75"/>
      <point x="220" y="113" type="curve" smooth="yes"/>
      <point x="220" y="515" type="line" smooth="yes"/>
      <point x="220" y="521"/>
      <point x="215" y="526"/>
      <point x="209" y="526" type="curve" smooth="yes"/>
      <point x="170" y="526" type="line"/>
      <point x="170" y="11" type="line" smooth="yes"/>
      <point x="170" y="5"/>
      <point x="175" y="0"/>
      <point x="181" y="0" type="curve" smooth="yes"/>
      <point x="194" y="0"/>
      <point x="207" y="0"/>
    </contour>
    <contour>
      <point x="195" y="536" type="move" name="top"/>
    </contour>
  </outline>
</glyph>
<glyph name="ij" format="1">
  <advance width="600"/>
  <unicode hex="0133"/>
  <outline>
    <contour>
      <point x="174" y="676" type="curve"/>
      <point x="174" y="745" type="line" smooth="yes"/>
      <point x="174" y="751"/>
      <point x="169" y="756"/>
      <point x="163" y="756" type="curve" smooth="yes"/>
      <point x="140" y="756"/>
      <point x="117" y="756"/>
      <point x="94" y="756" type="curve"/>
      <point x="94" y="687" type="line" smooth="yes"/>
      <point x="94" y="681"/>
      <point x="99" y="676"/>
      <point x="105" y="676" type="curve" smooth="yes"/>
      <point x="128" y="676"/>
      <point x="151" y="676"/>
    </contour>
    <contour>
      <point x="502" y="676" type="curve"/>
      <point x="502" y="745" type="line" smooth="yes"/>
      <point x="502" y="751"/>
      <point x="497" y="756"/>
      <point x="491" y="756" type="curve" smooth="yes"/>
      <point x="468" y="756"/>
      <point x="445" y="756"/>
      <point x="422" y="756" type="curve"/>
      <point x="422" y="687" type="line" smooth="yes"/>
      <point x="422" y="681"/>
      <point x="427" y="676"/>
      <point x="433" y="676" type="curve" smooth="yes"/>
      <point x="456" y="676"/>
      <point x="479" y="676"/>
    </contour>
    <component base="dotlessij"/>
  </outline>
</glyph>
<glyph name="lcaron" format="1">
  <advance width="400"/>
  <unicode hex="013E"/>
  <outline>
    <contour>
      <point x="100" y="640" type="curve"/>
      <point x="100" y="137" type="line" smooth="yes"/>
      <point x="100" y="76"/>
      <point x="128" y="58"/>
      <point x="150" y="58" type="curve"/>
      <point x="150" y="90"/>
      <point x="150" y="102"/>
      <point x="150" y="134" type="curve" smooth="yes"/>
      <point x="150" y="739" type="line" smooth="yes"/>
      <point x="150" y="742"/>
      <point x="149" y="745"/>
      <point x="147" y="747" type="curve" smooth="yes"/>
      <point x="145" y="749"/>
      <point x="142" y="750"/>
      <point x="139" y="750" type="curve" smooth="yes"/>
      <point x="126" y="750"/>
      <point x="113" y="750"/>
      <point x="100" y="750" type="curve"/>
      <point x="100" y="713"/>
      <point x="100" y="677"/>
    </contour>
    <contour>
      <point x="320" y="47" type="curve"/>
      <point x="310" y="47" type="line"/>
      <point x="283" y="47.0"/>
      <point x="259" y="47.0"/>
      <point x="232" y="47" type="curve" smooth="yes"/>
      <point x="170" y="47.0"/>
      <point x="150.0" y="67.0"/>
      <point x="150" y="134" type="curve"/>
      <point x="129" y="151"/>
      <point x="100" y="169"/>
      <point x="100" y="137" type="curve" smooth="yes"/>
      <point x="100.0" y="41.0"/>
      <point x="137.0" y="0"/>
      <point x="232" y="0" type="curve" smooth="yes"/>
      <point x="309" y="0" type="line" smooth="yes"/>
      <point x="312" y="0"/>
      <point x="315" y="1"/>
      <point x="317" y="3" type="curve" smooth="yes"/>
      <point x="319" y="5"/>
      <point x="320" y="7"/>
      <point x="320" y="11" type="curve" smooth="yes"/>
      <point x="320" y="24"/>
      <point x="320" y="34"/>
    </contour>
    <contour>
      <point x="308" y="589" type="curve" smooth="yes"/>
      <point x="318" y="589"/>
      <point x="321" y="594"/>
      <point x="323" y="599" type="curve" smooth="yes"/>
      <point x="339" y="666"/>
      <point x="341" y="674"/>
      <point x="356" y="736" type="curve" smooth="yes"/>
      <point x="358" y="744"/>
      <point x="355" y="751"/>
      <point x="342" y="751" type="curve" smooth="yes"/>
      <point x="326" y="751"/>
      <point x="314" y="751"/>
      <point x="295" y="751" type="curve"/>
      <point x="288" y="686"/>
      <point x="286" y="662"/>
      <point x="278" y="589" type="curve"/>
      <point x="287" y="589"/>
      <point x="295" y="589"/>
    </contour>
  </outline>
</glyph>
<glyph name="Ldot" format="1">
  <advance width="600"/>
  <unicode hex="013F"/>
  <outline>
    <contour>
      <point x="415" y="357" type="curve"/>
      <point x="415" y="431" type="line" smooth="yes"/>
      <point x="415.0" y="437.0"/>
      <point x="410" y="442"/>
      <point x="404" y="442" type="curve" smooth="yes"/>
      <point x="379" y="442.0"/>
      <point x="355" y="442.0"/>
      <point x="330" y="442" type="curve"/>
      <point x="330" y="368" type="line" smooth="yes"/>
      <point x="330" y="362"/>
      <point x="335" y="357"/>
      <point x="341" y="357" type="curve" smooth="yes"/>
      <point x="366" y="357.0"/>
      <point x="390" y="357.0"/>
    </contour>
    <component base="L"/>
  </outline>
</glyph>
<glyph name="Eng" format="1">
  <advance width="700"/>
  <unicode hex="014A"/>
  <outline>
    <contour>
      <point x="395" y="-203" type="curve" smooth="yes"/>
      <point x="342" y="-203"/>
      <point x="305" y="-193"/>
      <point x="271" y="-176" type="curve"/>
      <point x="259" y="-176" type="line"/>
      <point x="259.0" y="-188"/>
      <point x="259.0" y="-200"/>
      <point x="259" y="-212" type="curve" smooth="yes"/>
      <point x="259" y="-216"/>
      <point x="260" y="-218"/>
      <point x="262" y="-220" type="curve" smooth="yes"/>
      <point x="277" y="-235"/>
      <point x="332.0" y="-250.0"/>
      <point x="388" y="-250" type="curve" smooth="yes"/>
      <point x="536" y="-250.0"/>
      <point x="610.0" y="-158"/>
      <point x="610" y="0" type="curve"/>
      <point x="610" y="8"/>
      <point x="600" y="11"/>
      <point x="560" y="11" type="curve"/>
      <point x="560.0" y="-139"/>
      <point x="505" y="-203.0"/>
    </contour>
    <component base="N"/>
  </outline>
</glyph>
<glyph name="Schwa" format="1">
  <advance width="600"/>
  <unicode hex="018F"/>
  <outline>
    <contour>
      <point x="293" y="37" type="curve" smooth="yes"/>
      <point x="199.43037974683546" y="37.0"/>
      <point x="148.14586869667082" y="63.55605179274096"/>
      <point x="125" y="134" type="curve"/>
      <point x="116" y="134"/>
      <point x="105" y="128"/>
      <point x="105" y="117" type="curve"/>
      <point x="105.0" y="46.0"/>
      <point x="202.31791907514452" y="-10.0"/>
      <point x="288" y="-10" type="curve"/>
      <point x="412.04405286343615" y="-10.0"/>
      <point x="535" y="53.0"/>
      <point x="535" y="252" type="curve" smooth="yes"/>
      <point x="535" y="470" type="line" smooth="yes"/>
      <point x="535" y="643.0"/>
      <point x="414.672268907563" y="720.0"/>
      <point x="277" y="720" type="curve" smooth="yes"/>
      <point x="265" y="720"/>
      <point x="262" y="712"/>
      <point x="271" y="673" type="curve"/>
      <point x="414.4020618556701" y="673.0"/>
      <point x="485" y="599.0"/>
      <point x="485" y="468" type="curve" smooth="yes"/>
      <point x="485" y="255" type="line" smooth="yes"/>
      <point x="485" y="101.0"/>
      <point x="411.3255813953488" y="37.0"/>
    </contour>
    <contour>
      <point x="95" y="670" type="curve" smooth="yes"/>
      <point x="93" y="668"/>
      <point x="92" y="665"/>
      <point x="92" y="662" type="curve" smooth="yes"/>
      <point x="92" y="651"/>
      <point x="92" y="639"/>
      <point x="92" y="628" type="curve"/>
      <point x="104" y="628" type="line"/>
      <point x="159" y="660"/>
      <point x="194" y="673"/>
      <point x="271" y="673" type="curve" smooth="yes"/>
      <point x="371" y="673"/>
      <point x="421" y="647"/>
      <point x="467" y="572" type="curve"/>
      <point x="490" y="605"/>
      <point x="435" y="720"/>
      <point x="277" y="720" type="curve" smooth="yes"/>
      <point x="185" y="720"/>
      <point x="121" y="696"/>
    </contour>
    <contour>
      <point x="79" y="391" type="line" smooth="yes"/>
      <point x="72" y="391"/>
      <point x="68" y="387"/>
      <point x="68" y="380" type="curve" smooth="yes"/>
      <point x="68" y="231" type="line" smooth="yes"/>
      <point x="68" y="76.0"/>
      <point x="149.11111111111111" y="-10.0"/>
      <point x="288" y="-10" type="curve" smooth="yes"/>
      <point x="302" y="-10"/>
      <point x="303" y="-1"/>
      <point x="293" y="37" type="curve"/>
      <point x="168.32679738562092" y="37.0"/>
      <point x="118" y="100.0"/>
      <point x="118" y="247" type="curve" smooth="yes"/>
      <point x="118" y="343" type="line" smooth="yes"/>
      <point x="118" y="344"/>
      <point x="118" y="344"/>
      <point x="119" y="344" type="curve" smooth="yes"/>
      <point x="284.6590909090909" y="344.0"/>
      <point x="365.5133689839572" y="344.0"/>
      <point x="513" y="344" type="curve"/>
      <point x="513" y="373"/>
      <point x="510" y="379"/>
      <point x="504" y="385" type="curve" smooth="yes"/>
      <point x="500" y="389"/>
      <point x="496.0" y="391.0"/>
      <point x="491" y="391" type="curve" smooth="yes"/>
    </contour>
  </outline>
</glyph>
<glyph name="dieresiscomb" format="1">
  <unicode hex="0308"/>
  <outline>
    <contour>
      <point x="-60" y="676" type="curve"/>
      <point x="-60" y="745" type="line" smooth="yes"/>
      <point x="-60" y="751"/>
      <point x="-65" y="756"/>
      <point x="-71" y="756" type="curve" smooth="yes"/>
      <point x="-94" y="756"/>
      <point x="-117" y="756"/>
      <point x="-140" y="756" type="curve"/>
      <point x="-140" y="687" type="line" smooth="yes"/>
      <point x="-140" y="681"/>
      <point x="-135" y="676"/>
      <point x="-129" y="676" type="curve" smooth="yes"/>
      <point x="-106" y="676"/>
      <point x="-83" y="676"/>
    </contour>
    <contour>
      <point x="140" y="676" type="curve"/>
      <point x="140" y="745" type="line" smooth="yes"/>
      <point x="140" y="751"/>
      <point x="135" y="756"/>
      <point x="129" y="756" type="curve" smooth="yes"/>
      <point x="106" y="756"/>
      <point x="83" y="756"/>
      <point x="60" y="756" type="curve"/>
      <point x="60" y="687" type="line" smooth="yes"/>
      <point x="60" y="681"/>
      <point x="65" y="676"/>
      <point x="71" y="676" type="curve" smooth="yes"/>
      <point x="94" y="676"/>
      <point x="117" y="676"/>
    </contour>
    <contour>
      <point x="0" y="537" type="move" name="_top"/>
    </contour>
  </outline>
</glyph>
<glyph name="commaaboverightcomb" format="1">
  <unicode hex="0315"/>
  <outline>
    <contour>
      <point x="-4.0" y="539.0" type="curve" smooth="yes"/>
      <point x="6" y="539.0"/>
      <point x="9.0" y="544.0"/>
      <point x="11" y="549" type="curve" smooth="yes"/>
      <point x="27" y="616"/>
      <point x="29" y="624"/>
      <point x="44" y="686" type="curve" smooth="yes"/>
      <point x="46.0" y="694"/>
      <point x="43.0" y="701.0"/>
      <point x="30" y="701.0" type="curve" smooth="yes"/>
      <point x="14" y="701.0"/>
      <point x="2" y="701.0"/>
      <point x="-17" y="701.0" type="curve"/>
      <point x="-23.67940566477971" y="636.1143449707114"/>
      <point x="-26" y="612"/>
      <point x="-34.0" y="539.0" type="curve"/>
      <point x="-25" y="539.0"/>
      <point x="-17" y="539.0"/>
    </contour>
    <contour>
      <point x="0" y="629" type="move" name="_caronslovak"/>
    </contour>
  </outline>
</glyph>
<glyph name="daggerdbl" format="1">
  <advance width="600"/>
  <unicode hex="2021"/>
  <outline>
    <contour>
      <point x="314" y="700" type="curve" smooth="yes"/>
      <point x="301" y="700.0"/>
      <point x="288" y="700.0"/>
      <point x="275" y="700" type="curve"/>
      <point x="275.0" y="666"/>
      <point x="275.0" y="633"/>
      <point x="275" y="599" type="curve"/>
      <point x="275" y="-139" type="line" smooth="yes"/>
      <point x="275" y="-146"/>
      <point x="280" y="-150"/>
      <point x="286" y="-150" type="curve" smooth="yes"/>
      <point x="299" y="-150.0"/>
      <point x="312" y="-150.0"/>
      <point x="325" y="-150" type="curve"/>
      <point x="325.0" y="-116"/>
      <point x="325.0" y="-81"/>
      <point x="325" y="-47" type="curve"/>
      <point x="325" y="689" type="line" smooth="yes"/>
      <point x="325" y="696"/>
      <point x="320" y="700"/>
    </contour>
    <contour>
      <point x="76" y="453" type="curve"/>
      <point x="524" y="453" type="line"/>
      <point x="524.0" y="465.0"/>
      <point x="524.0" y="477.0"/>
      <point x="524" y="489" type="curve" smooth="yes"/>
      <point x="524.0" y="495.0"/>
      <point x="519.0" y="500.0"/>
      <point x="513" y="500" type="curve" smooth="yes"/>
      <point x="87" y="500" type="line" smooth="yes"/>
      <point x="80" y="500"/>
      <point x="76" y="496"/>
      <point x="76" y="489" type="curve" smooth="yes"/>
      <point x="76.0" y="477.0"/>
      <point x="76.0" y="465.0"/>
    </contour>
    <contour>
      <point x="524.0" y="97.0" type="curve"/>
      <point x="76.0" y="97.0" type="line"/>
      <point x="76.0" y="85.0"/>
      <point x="76.0" y="73.0"/>
      <point x="76.0" y="61.0" type="curve" smooth="yes"/>
      <point x="76.0" y="55.0"/>
      <point x="81.0" y="50.0"/>
      <point x="87.0" y="50.0" type="curve" smooth="yes"/>
      <point x="513.0" y="50.0" type="line" smooth="yes"/>
      <point x="520.0" y="50.0"/>
      <point x="524.0" y="54.0"/>
      <point x="524.0" y="61.0" type="curve" smooth="yes"/>
      <point x="524.0" y="73.0"/>
      <point x="524.0" y="85.0"/>
    </contour>
  </outline>
</glyph>
<glyph name="Euro" format="1">
  <advance width="600"/>
  <unicode hex="20AC"/>
  <outline>
    <contour>
      <point x="336" y="673" type="curve" smooth="yes"/>
      <point x="422.0" y="673.0"/>
      <point x="465" y="650"/>
      <point x="499" y="609" type="curve"/>
      <point x="523" y="648"/>
      <point x="523" y="654"/>
      <point x="518" y="659" type="curve" smooth="yes"/>
      <point x="480" y="697"/>
      <point x="423" y="720"/>
      <point x="336" y="720" type="curve" smooth="yes"/>
      <point x="164.0" y="720.0"/>
      <point x="75" y="619"/>
      <point x="75" y="432" type="curve" smooth="yes"/>
      <point x="75" y="244" type="line" smooth="yes"/>
      <point x="75.0" y="188.0"/>
      <point x="97.0" y="127.0"/>
      <point x="127" y="127" type="curve"/>
      <point x="127" y="171"/>
      <point x="127.0" y="202.0"/>
      <point x="127" y="248" type="curve" smooth="yes"/>
      <point x="127" y="434" type="line" smooth="yes"/>
      <point x="127" y="597"/>
      <point x="193.0" y="673.0"/>
    </contour>
    <contour>
      <point x="325" y="-20.0" type="curve" smooth="yes"/>
      <point x="411" y="-20"/>
      <point x="483" y="4"/>
      <point x="522" y="43" type="curve" smooth="yes"/>
      <point x="524" y="45"/>
      <point x="525" y="48"/>
      <point x="525" y="51" type="curve" smooth="yes"/>
      <point x="525" y="64"/>
      <point x="525" y="77"/>
      <point x="525" y="91" type="curve"/>
      <point x="513" y="91" type="line"/>
      <point x="457" y="46"/>
      <point x="401" y="27"/>
      <point x="325" y="27" type="curve" smooth="yes"/>
      <point x="205.0" y="27"/>
      <point x="127.0" y="113.0"/>
      <point x="127" y="248" type="curve"/>
      <point x="83" y="257"/>
      <point x="75" y="255"/>
      <point x="75" y="244" type="curve" smooth="yes"/>
      <point x="75.0" y="87"/>
      <point x="175.0" y="-20.0"/>
    </contour>
    <contour>
      <point x="524" y="550" type="curve"/>
      <point x="524" y="640" type="line" smooth="yes"/>
      <point x="524" y="652"/>
      <point x="523" y="654"/>
      <point x="518" y="659" type="curve" smooth="yes"/>
      <point x="512" y="665"/>
      <point x="513" y="668"/>
      <point x="474" y="668" type="curve"/>
      <point x="474" y="656"/>
      <point x="474" y="639"/>
      <point x="474" y="631" type="curve" smooth="yes"/>
      <point x="474" y="561" type="line"/>
      <point x="474.0" y="555.0"/>
      <point x="479.0" y="550.0"/>
      <point x="485" y="550" type="curve" smooth="yes"/>
      <point x="498.0" y="550.0"/>
      <point x="511" y="550"/>
    </contour>
    <contour>
      <point x="26" y="450" type="line"/>
      <point x="26.0" y="439"/>
      <point x="26.0" y="429"/>
      <point x="26" y="418" type="curve" smooth="yes"/>
      <point x="26.0" y="411.0"/>
      <point x="30" y="407"/>
      <point x="37" y="407" type="curve" smooth="yes"/>
      <point x="374" y="407" type="line"/>
      <point x="374.0" y="418"/>
      <point x="374.0" y="428"/>
      <point x="374" y="439" type="curve" smooth="yes"/>
      <point x="374.0" y="445.0"/>
      <point x="369.0" y="450.0"/>
      <point x="363" y="450" type="curve"/>
    </contour>
    <contour>
      <point x="374.0" y="237.0" type="line"/>
      <point x="374.0" y="247.66666666666666"/>
      <point x="374.0" y="258.3333333333333"/>
      <point x="374.0" y="269.0" type="curve" smooth="yes"/>
      <point x="374.0" y="272.0"/>
      <point x="373.0" y="275.0"/>
      <point x="371.0" y="277.0" type="curve" smooth="yes"/>
      <point x="369.0" y="279.0"/>
      <point x="366.0" y="280.0"/>
      <point x="363.0" y="280.0" type="curve"/>
      <point x="26.0" y="280.0" type="line"/>
      <point x="26.0" y="269.3333333333333"/>
      <point x="26.0" y="258.6666666666667"/>
      <point x="26.0" y="248.0" type="curve" smooth="yes"/>
      <point x="26.0" y="242.0"/>
      <point x="31.0" y="237.0"/>
      <point x="37.0" y="237.0" type="curve"/>
    </contour>
  </outline>
</glyph>
<glyph name="J.replaced_with_nokinks" format="1">
  <advance width="600"/>
  <outline>
    <contour>
      <point x="140" y="700" type="line"/>
      <point x="140.0" y="687"/>
      <point x="140.0" y="677"/>
      <point x="140" y="664" type="curve" smooth="yes"/>
      <point x="140" y="661"/>
      <point x="141" y="658"/>
      <point x="143" y="656" type="curve" smooth="yes"/>
      <point x="145" y="654"/>
      <point x="148" y="653"/>
      <point x="151" y="653" type="curve" smooth="yes"/>
      <point x="453" y="653" type="line"/>
      <point x="453" y="688"/>
      <point x="450" y="700"/>
      <point x="442" y="700" type="curve"/>
    </contour>
    <contour>
      <point x="490" y="240" type="curve" smooth="yes"/>
      <point x="490" y="677" type="line" smooth="yes"/>
      <point x="490" y="692"/>
      <point x="477.0" y="700.0"/>
      <point x="450" y="700" type="curve" smooth="yes"/>
      <point x="440" y="700" type="line"/>
      <point x="440" y="237" type="line" smooth="yes"/>
      <point x="440.0" y="144.0"/>
      <point x="419" y="98"/>
      <point x="357" y="28" type="curve"/>
      <point x="408" y="30"/>
      <point x="417.66894783193345" y="34.66894783193348"/>
      <point x="425" y="42" type="curve" smooth="yes"/>
      <point x="465.06902472996205" y="82.06902472996205"/>
      <point x="490" y="147.33990147783254"/>
    </contour>
    <contour>
      <point x="260" y="27" type="curve" smooth="yes"/>
      <point x="209" y="27.0"/>
      <point x="169" y="41"/>
      <point x="122" y="72" type="curve"/>
      <point x="110" y="72" type="line"/>
      <point x="110.0" y="58"/>
      <point x="110.0" y="48"/>
      <point x="110" y="34" type="curve"/>
      <point x="110" y="30"/>
      <point x="111" y="28"/>
      <point x="113" y="26" type="curve" smooth="yes"/>
      <point x="136.5506211055072" y="2.4493788944928028"/>
      <point x="197.37278106508873" y="-20"/>
      <point x="260" y="-20" type="curve" smooth="yes"/>
      <point x="265" y="-20" type="line" smooth="yes"/>
      <point x="313.0924855491329" y="-20"/>
      <point x="370.18269538393764" y="-12.817304616062323"/>
      <point x="425" y="42" type="curve" smooth="yes"/>
      <point x="432.9123579852444" y="49.912357985244434"/>
      <point x="432" y="56"/>
      <point x="433" y="110" type="curve"/>
      <point x="368" y="46"/>
      <point x="331" y="27.0"/>
    </contour>
  </outline>
</glyph>
<glyph name="U.replaced_with_nokinks" format="1">
  <advance width="600"/>
  <outline>
    <contour>
      <point x="77" y="700" type="curve"/>
      <point x="77" y="667"/>
      <point x="77" y="633"/>
      <point x="77" y="600" type="curve" smooth="yes"/>
      <point x="77" y="139" type="line"/>
      <point x="77" y="128"/>
      <point x="80" y="121"/>
      <point x="136" y="84" type="curve"/>
      <point x="127.0" y="139"/>
      <point x="127" y="149"/>
      <point x="127" y="202" type="curve"/>
      <point x="127" y="689" type="line"/>
      <point x="127" y="695"/>
      <point x="122" y="700"/>
      <point x="116" y="700" type="curve"/>
      <point x="103" y="700"/>
      <point x="90" y="700"/>
    </contour>
    <contour>
      <point x="241.0" y="-20.0" type="curve" smooth="yes"/>
      <point x="325.99543378995435" y="-20.0"/>
      <point x="417.32635663205343" y="31.110790754310543"/>
      <point x="468.0" y="98.0" type="curve" smooth="yes"/>
      <point x="484.0" y="119.0"/>
      <point x="491.0" y="145.0"/>
      <point x="489.0" y="180.0" type="curve"/>
      <point x="389.62856254402453" y="61.36267160868236"/>
      <point x="316" y="27.0"/>
      <point x="243.0" y="27.0" type="curve" smooth="yes"/>
      <point x="173" y="27.0"/>
      <point x="123.0" y="79.0"/>
      <point x="123.0" y="164.0" type="curve"/>
      <point x="81.0" y="162.0"/>
      <point x="77" y="151"/>
      <point x="77.0" y="139.0" type="curve" smooth="yes"/>
      <point x="77.0" y="57.0"/>
      <point x="132.71794871794873" y="-20.0"/>
    </contour>
    <contour>
      <point x="518" y="0" type="curve"/>
      <point x="518.0" y="33"/>
      <point x="518.0" y="67.0"/>
      <point x="518" y="100" type="curve" smooth="yes"/>
      <point x="518" y="689" type="line" smooth="yes"/>
      <point x="518.0" y="695.0"/>
      <point x="513.0" y="700.0"/>
      <point x="507" y="700" type="curve" smooth="yes"/>
      <point x="494.0" y="700.0"/>
      <point x="481" y="700.0"/>
      <point x="468" y="700" type="curve"/>
      <point x="468" y="11" type="line" smooth="yes"/>
      <point x="468.0" y="8.0"/>
      <point x="469" y="5"/>
      <point x="471" y="3" type="curve" smooth="yes"/>
      <point x="473" y="1"/>
      <point x="476" y="0"/>
      <point x="479" y="0" type="curve" smooth="yes"/>
      <point x="492.0" y="0.0"/>
      <point x="505" y="0.0"/>
    </contour>
  </outline>
</glyph>
<glyph name="braceleft.assymetrical" format="1">
  <advance width="600"/>
  <outline>
    <contour>
      <point x="424" y="710" type="curve" smooth="yes"/>
      <point x="446.0" y="710.0"/>
      <point x="468.0" y="710.0"/>
      <point x="490" y="710" type="curve"/>
      <point x="510" y="710" type="line"/>
      <point x="510.0" y="723"/>
      <point x="510.0" y="736"/>
      <point x="510" y="749" type="curve"/>
      <point x="510" y="756"/>
      <point x="506.0" y="760.0"/>
      <point x="499" y="760" type="curve" smooth="yes"/>
      <point x="240" y="760" type="line" smooth="yes"/>
      <point x="233" y="760"/>
      <point x="229" y="756"/>
      <point x="229" y="749" type="curve"/>
      <point x="229.0" y="721" type="line"/>
      <point x="229.0" y="714.0"/>
      <point x="233.0" y="710.0"/>
      <point x="251" y="710" type="curve"/>
      <point x="296.0" y="710.0"/>
      <point x="379.0" y="710.0"/>
    </contour>
    <contour>
      <point x="360.0" y="449" type="curve" smooth="yes"/>
      <point x="360.0" y="554.0"/>
      <point x="279.0" y="597"/>
      <point x="279" y="670" type="curve" smooth="yes"/>
      <point x="279.0" y="695.5882352941177"/>
      <point x="279.0" y="708.3823529411765"/>
      <point x="279" y="728" type="curve"/>
      <point x="255" y="728"/>
      <point x="229" y="728"/>
      <point x="229" y="721" type="curve" smooth="yes"/>
      <point x="229" y="674" type="line" smooth="yes"/>
      <point x="229.0" y="579.0"/>
      <point x="310.0" y="542"/>
      <point x="310" y="446" type="curve" smooth="yes"/>
      <point x="310.0" y="362.4684684684685"/>
      <point x="226.0" y="324.0"/>
      <point x="98" y="324.0" type="curve" smooth="yes"/>
      <point x="66" y="324" type="line"/>
      <point x="66" y="285" type="line" smooth="yes"/>
      <point x="66" y="277"/>
      <point x="70" y="274"/>
      <point x="77" y="274" type="curve"/>
      <point x="98" y="274" type="line" smooth="yes"/>
      <point x="255.0" y="274"/>
      <point x="360.0" y="342.29268292682923"/>
    </contour>
    <contour>
      <point x="360.0" y="156" type="curve" smooth="yes"/>
      <point x="360.0" y="250.0"/>
      <point x="278.0" y="320.0"/>
      <point x="202" y="320" type="curve" smooth="yes"/>
      <point x="178" y="320"/>
      <point x="173.0" y="306"/>
      <point x="173" y="294" type="curve"/>
      <point x="286.4208074653559" y="261.5940550098983"/>
      <point x="310.0" y="208.87596899224806"/>
      <point x="310.0" y="155" type="curve" smooth="yes"/>
      <point x="310.0" y="62.59471365638767"/>
      <point x="229" y="8.356828193832598"/>
      <point x="229" y="-73" type="curve" smooth="yes"/>
      <point x="229" y="-121" type="line" smooth="yes"/>
      <point x="229" y="-145"/>
      <point x="233" y="-145.0"/>
      <point x="279" y="-145" type="curve"/>
      <point x="279.0" y="-121.0"/>
      <point x="279.0" y="-96"/>
      <point x="279" y="-71" type="curve" smooth="yes"/>
      <point x="279.0" y="-12.743362831858406"/>
      <point x="360.0" y="53.54867256637169"/>
    </contour>
    <contour>
      <point x="424" y="-111" type="curve" smooth="yes"/>
      <point x="379" y="-111.0"/>
      <point x="296" y="-111.0"/>
      <point x="251" y="-111" type="curve"/>
      <point x="242.0" y="-111.0"/>
      <point x="229.0" y="-112.0"/>
      <point x="229.0" y="-121.0" type="curve"/>
      <point x="229" y="-150" type="line" smooth="yes"/>
      <point x="229.0" y="-157.0"/>
      <point x="233" y="-161"/>
      <point x="240" y="-161" type="curve" smooth="yes"/>
      <point x="499" y="-161" type="line" smooth="yes"/>
      <point x="506.0" y="-161.0"/>
      <point x="510" y="-157"/>
      <point x="510" y="-150" type="curve"/>
      <point x="510" y="-111" type="line"/>
      <point x="490" y="-111" type="line"/>
      <point x="468.0" y="-111.0"/>
      <point x="446.0" y="-111.0"/>
    </contour>
  </outline>
</glyph>
<glyph name="cedillacomb.case" format="1">
  <outline>
    <contour>
      <point x="95" y="-124" type="curve" smooth="yes"/>
      <point x="95" y="-74"/>
      <point x="63" y="-45"/>
      <point x="13" y="-42" type="curve"/>
      <point x="17" y="-21"/>
      <point x="22" y="1"/>
      <point x="26" y="22" type="curve"/>
      <point x="-14" y="22.0"/>
      <point x="-19" y="22"/>
      <point x="-21" y="9" type="curve" smooth="yes"/>
      <point x="-26" y="-17"/>
      <point x="-30" y="-40"/>
      <point x="-35" y="-67" type="curve" smooth="yes"/>
      <point x="-36" y="-73"/>
      <point x="-33.0" y="-79.0"/>
      <point x="-26" y="-79" type="curve" smooth="yes"/>
      <point x="36" y="-79.0"/>
      <point x="50.0" y="-95"/>
      <point x="50" y="-125" type="curve" smooth="yes"/>
      <point x="50.0" y="-158"/>
      <point x="22" y="-178.0"/>
      <point x="-21" y="-178.0" type="curve" smooth="yes"/>
      <point x="-58" y="-178.0"/>
      <point x="-73" y="-171"/>
      <point x="-88" y="-158" type="curve"/>
      <point x="-100" y="-158" type="line"/>
      <point x="-100" y="-169"/>
      <point x="-100" y="-176"/>
      <point x="-100" y="-192" type="curve" smooth="yes"/>
      <point x="-100.0" y="-203.0"/>
      <point x="-75" y="-220"/>
      <point x="-23" y="-220.0" type="curve" smooth="yes"/>
      <point x="52.0" y="-220.0"/>
      <point x="95.0" y="-179.0"/>
    </contour>
    <contour>
      <point x="0" y="-1" type="move" name="_bottom"/>
    </contour>
  </outline>
</glyph>
<glyph name="dotaccentcomb.case" format="1">
  <outline>
    <component base="dotaccentcomb" yOffset="132.0"/>
    <contour>
      <point x="0" y="711" type="move" name="_top"/>
    </contour>
  </outline>
</glyph>
<glyph name="g.italic" format="1">
  <advance width="600.0"/>
  <outline>
    <contour>
      <point x="329.32609875203474" y="536.0" type="curve" smooth="yes"/>
      <point x="207.89690721649484" y="536.0"/>
      <point x="129.84970157352143" y="477.9484536082474"/>
      <point x="85.66521975040695" y="309.3798155181769" type="curve" smooth="yes"/>
      <point x="55.19316332067282" y="192.47639717851328" type="line" smooth="yes"/>
      <point x="42.24253933803581" y="144.85838307107977"/>
      <point x="61.29191535539881" y="70.00217037438958"/>
      <point x="84.81551817688552" y="70.00217037438958" type="curve" smooth="yes"/>
      <point x="93.81551817688552" y="70.00217037438958"/>
      <point x="99.57731958762886" y="71.00217037438958"/>
      <point x="102.33912099837222" y="75.00217037438958" type="curve"/>
      <point x="92.90992946283234" y="114.24036896364623"/>
      <point x="92.24253933803581" y="145.90775908844276"/>
      <point x="112.049376017363" y="220.66739012479653" type="curve" smooth="yes"/>
      <point x="133.37981551817688" y="299.9978296256104" type="line" smooth="yes"/>
      <point x="169.94628323385783" y="441.901247965274"/>
      <point x="226.65870862723818" y="490.5236028214867"/>
      <point x="325.46988605534455" y="490.5236028214867" type="curve" smooth="yes"/>
      <point x="396.47205642973415" y="490.5236028214867"/>
      <point x="443.3754747693977" y="456.2360282148671"/>
      <point x="474.66304937601734" y="374.80900705371675" type="curve"/>
      <point x="483.28323385784046" y="374.33260987520345"/>
      <point x="501.47205642973415" y="408.4270211611503"/>
      <point x="496.23385784047747" y="423.14161692892026" type="curve" smooth="yes"/>
      <point x="473.75746066196416" y="485.3798155181769"/>
      <point x="413.85187194791104" y="536.0"/>
    </contour>
    <contour>
      <point x="189.72327726532828" y="-10.0" type="curve" smooth="yes"/>
      <point x="275.05588714053175" y="-10.0"/>
      <point x="331.9593054801953" y="25.190992946283234"/>
      <point x="392.00651112316876" y="76.85838307107976" type="curve" smooth="yes"/>
      <point x="415.2919153553988" y="97.85838307107976"/>
      <point x="425.6717308735757" y="128.0965816603364"/>
      <point x="429.00434074877916" y="162.71459576776994" type="curve"/>
      <point x="330.4829083016821" y="68.66739012479653"/>
      <point x="270.7704829083017" y="35.476397178513295"/>
      <point x="196.8176885512751" y="35.476397178513295" type="curve" smooth="yes"/>
      <point x="116.8648941942485" y="35.476397178513295"/>
      <point x="77.05371676614217" y="109.57080846446011"/>
      <point x="104.5729788388497" y="226.66739012479653" type="curve"/>
      <point x="69.049376017363" y="222.66739012479653"/>
      <point x="57.478567552902874" y="202.47639717851328"/>
      <point x="55.19316332067282" y="192.47639717851328" type="curve" smooth="yes"/>
      <point x="27.00651112316875" y="77.4270211611503"/>
      <point x="83.43787303309821" y="-10.0"/>
    </contour>
    <contour>
      <point x="418.3906673901248" y="-9.141616928920238" type="curve" smooth="yes"/>
      <point x="529.6136733586544" y="426.0" type="line" smooth="yes"/>
      <point x="537.9934888768313" y="459.0"/>
      <point x="546.3733043950082" y="493.0"/>
      <point x="554.7531199131851" y="526.0" type="curve"/>
      <point x="541.7531199131851" y="526.0"/>
      <point x="528.7531199131851" y="526.0"/>
      <point x="515.7531199131851" y="526.0" type="curve" smooth="yes"/>
      <point x="512.7531199131851" y="526.0"/>
      <point x="509.753119913185" y="525.0"/>
      <point x="506.9913185024417" y="523.0" type="curve" smooth="yes"/>
      <point x="504.9913185024417" y="521.0"/>
      <point x="503.2295170916983" y="518.0"/>
      <point x="502.46771568095494" y="515.0" type="curve" smooth="yes"/>
      <point x="368.3906673901248" y="-9.141616928920238" type="line" smooth="yes"/>
      <point x="343.25122083559415" y="-107.14161692892024"/>
      <point x="305.4915897992404" y="-155.18882257189364"/>
      <point x="219.87357569180685" y="-207.52360282148672" type="curve"/>
      <point x="280.77916440586" y="-230.52360282148672"/>
      <point x="388.680412371134" y="-126.14161692892024"/>
    </contour>
    <contour>
      <point x="137.87140531741727" y="-202.23819858925665" type="curve" smooth="yes"/>
      <point x="63.779164405860016" y="-202.23819858925665"/>
      <point x="29.1589799240369" y="-188.42919153553987"/>
      <point x="-1.4612045577862034" y="-170.71459576776994" type="curve"/>
      <point x="-13.461204557786203" y="-170.71459576776994" type="line"/>
      <point x="-17.270211611502972" y="-184.47639717851328"/>
      <point x="-19.555615843733037" y="-193.42919153553987"/>
      <point x="-21.8410200759631" y="-203.38198589256646" type="curve" smooth="yes"/>
      <point x="-23.364622897449806" y="-208.90558871405318"/>
      <point x="-23.12642430819315" y="-210.90558871405318"/>
      <point x="-21.12642430819315" y="-213.66739012479653" type="curve" smooth="yes"/>
      <point x="-8.69723277265328" y="-229.1437873033098"/>
      <point x="44.399348887683146" y="-250.0"/>
      <point x="123.39717851329355" y="-250.0" type="curve" smooth="yes"/>
      <point x="278.7319587628866" y="-250.0"/>
      <point x="370.39717851329357" y="-194.47205642973412"/>
      <point x="418.3906673901248" y="-9.141616928920238" type="curve" smooth="yes"/>
      <point x="421.4378730330982" y="4.334780249593056"/>
      <point x="415.96147585458493" y="9.334780249593056"/>
      <point x="401.96147585458493" y="9.334780249593056" type="curve"/>
      <point x="341.39500813890396" y="-159.43136190992948"/>
      <point x="239.67824199674445" y="-202.23819858925665"/>
    </contour>
  </outline>
</glyph>
<glyph name="g.ss01" format="1">
  <advance width="600"/>
  <outline>
    <contour>
      <point x="294" y="484" type="curve" smooth="yes"/>
      <point x="379" y="484.0"/>
      <point x="464" y="484.0"/>
      <point x="549" y="484" type="curve" smooth="yes"/>
      <point x="555.0" y="484.0"/>
      <point x="560.0" y="489.0"/>
      <point x="560" y="495" type="curve" smooth="yes"/>
      <point x="560.0" y="507"/>
      <point x="560.0" y="519"/>
      <point x="560" y="531" type="curve"/>
      <point x="472" y="531.0"/>
      <point x="383" y="531.0"/>
      <point x="295" y="531" type="curve"/>
      <point x="177" y="531"/>
      <point x="85" y="468"/>
      <point x="85" y="371" type="curve" smooth="yes"/>
      <point x="85" y="330" type="line" smooth="yes"/>
      <point x="85" y="236"/>
      <point x="166" y="174"/>
      <point x="284" y="172" type="curve" smooth="yes"/>
      <point x="307" y="172"/>
      <point x="321" y="181"/>
      <point x="321" y="204" type="curve"/>
      <point x="212" y="204"/>
      <point x="135" y="249"/>
      <point x="135" y="327" type="curve" smooth="yes"/>
      <point x="135" y="367" type="line" smooth="yes"/>
      <point x="135" y="443.30434782608694"/>
      <point x="199.0" y="484"/>
    </contour>
    <contour>
      <point x="285.0" y="219.0" type="curve" smooth="yes"/>
      <point x="224.0" y="219.0"/>
      <point x="166.0" y="241.0"/>
      <point x="136.0" y="278.0" type="curve"/>
      <point x="101" y="232"/>
      <point x="210.0" y="172.0"/>
      <point x="284.0" y="172.0" type="curve" smooth="yes"/>
      <point x="402.0" y="172.0"/>
      <point x="494.0" y="235"/>
      <point x="494.0" y="332.0" type="curve" smooth="yes"/>
      <point x="494.0" y="368.0" type="line" smooth="yes"/>
      <point x="494.0" y="424.0"/>
      <point x="448.0" y="490.0"/>
      <point x="379.0" y="490.0" type="curve" smooth="yes"/>
      <point x="371" y="490"/>
      <point x="364.0" y="490.0"/>
      <point x="350.0" y="490.0" type="curve"/>
      <point x="419.0" y="447.0"/>
      <point x="444.0" y="399.0"/>
      <point x="444.0" y="360" type="curve" smooth="yes"/>
      <point x="444.0" y="336.0" type="line" smooth="yes"/>
      <point x="444.0" y="261"/>
      <point x="380.0" y="219.0"/>
    </contour>
    <contour>
      <point x="170" y="93" type="curve" smooth="yes"/>
      <point x="170.0" y="86" type="line" smooth="yes"/>
      <point x="170" y="32.0"/>
      <point x="206.0" y="0"/>
      <point x="263" y="0" type="curve" smooth="yes"/>
      <point x="378" y="0" type="line" smooth="yes"/>
      <point x="469.0" y="0"/>
      <point x="510" y="-33"/>
      <point x="510" y="-82" type="curve" smooth="yes"/>
      <point x="510" y="-103" type="line" smooth="yes"/>
      <point x="510" y="-129"/>
      <point x="501" y="-160"/>
      <point x="458" y="-197" type="curve"/>
      <point x="473" y="-212"/>
      <point x="503" y="-214"/>
      <point x="516" y="-201" type="curve" smooth="yes"/>
      <point x="550.0" y="-167.0"/>
      <point x="560.0" y="-139.0"/>
      <point x="560" y="-99" type="curve" smooth="yes"/>
      <point x="560" y="-82" type="line" smooth="yes"/>
      <point x="560" y="-3"/>
      <point x="506.0" y="50"/>
      <point x="382" y="50" type="curve" smooth="yes"/>
      <point x="263" y="50.0" type="line" smooth="yes"/>
      <point x="233.0" y="50"/>
      <point x="220.0" y="62.0"/>
      <point x="220.0" y="90" type="curve" smooth="yes"/>
      <point x="220.0" y="96" type="line" smooth="yes"/>
      <point x="220.0" y="123"/>
      <point x="237" y="166"/>
      <point x="256" y="182" type="curve"/>
      <point x="256.0" y="189.0"/>
      <point x="249" y="191"/>
      <point x="228" y="191" type="curve" smooth="yes"/>
      <point x="204.0" y="191.0"/>
      <point x="170" y="134"/>
    </contour>
    <contour>
      <point x="519" y="-143" type="curve"/>
      <point x="468" y="-187"/>
      <point x="432.0" y="-203.0"/>
      <point x="372" y="-203.0" type="curve" smooth="yes"/>
      <point x="263" y="-203" type="line" smooth="yes"/>
      <point x="165.0" y="-203"/>
      <point x="110" y="-170"/>
      <point x="110" y="-107" type="curve" smooth="yes"/>
      <point x="110" y="-88" type="line" smooth="yes"/>
      <point x="110" y="-42"/>
      <point x="130" y="-4"/>
      <point x="217" y="20" type="curve"/>
      <point x="212.0" y="38.0"/>
      <point x="204.0" y="54.0"/>
      <point x="191" y="52" type="curve" smooth="yes"/>
      <point x="105" y="36"/>
      <point x="60" y="-19"/>
      <point x="60" y="-92" type="curve" smooth="yes"/>
      <point x="60" y="-113" type="line" smooth="yes"/>
      <point x="60.0" y="-193.0"/>
      <point x="127.0" y="-250.0"/>
      <point x="250" y="-250" type="curve" smooth="yes"/>
      <point x="365" y="-250.0" type="line" smooth="yes"/>
      <point x="410" y="-250.0"/>
      <point x="480" y="-238"/>
      <point x="516" y="-201" type="curve"/>
      <point x="525" y="-192"/>
      <point x="526" y="-150"/>
    </contour>
  </outline>
</glyph>
<glyph name="r.italic" format="1">
  <advance width="450.0"/>
  <outline>
    <contour>
      <point x="106.96859880789097" y="526.0" type="curve"/>
      <point x="103.83765023142244" y="513.5078676071622"/>
      <point x="100.70670165495392" y="501.0157352143245"/>
      <point x="97.57575307848538" y="488.5236028214867" type="curve" smooth="yes"/>
      <point x="96.05258890614935" y="482.5236028214867"/>
      <point x="99.78328542920266" y="477.5236028214867"/>
      <point x="105.78328542920266" y="477.5236028214867" type="curve" smooth="yes"/>
      <point x="133.8023413163432" y="477.5236028214867"/>
      <point x="185.74185958759284" y="477.5236028214867"/>
      <point x="213.7832854292027" y="477.5236028214867" type="curve"/>
      <point x="223.28782986457955" y="515.3351926207271"/>
      <point x="221.968598807891" y="526.0"/>
      <point x="218.968598807891" y="526.0" type="curve" smooth="yes"/>
      <point x="185.13526547455763" y="526.0"/>
      <point x="141.43013726942945" y="526.0"/>
    </contour>
    <contour>
      <point x="99.43787303309821" y="0.0" type="curve"/>
      <point x="108.83071876250378" y="37.0"/>
      <point x="118.4774251872987" y="75.0"/>
      <point x="127.87027091670427" y="112.0" type="curve"/>
      <point x="209.10569344129303" y="432.0" type="line" smooth="yes"/>
      <point x="218.24467847530929" y="468.0"/>
      <point x="229.968598807891" y="526.0"/>
      <point x="218.968598807891" y="526.0" type="curve" smooth="yes"/>
      <point x="211.968598807891" y="526.0"/>
      <point x="188.44543463555493" y="520.0"/>
      <point x="180.4299918539976" y="516.0" type="curve"/>
      <point x="52.230340682380955" y="11.0" type="line"/>
      <point x="50.70717651004492" y="5.0"/>
      <point x="54.437873033098214" y="0.0"/>
      <point x="60.437873033098214" y="0.0" type="curve"/>
      <point x="72.43787303309821" y="0.0"/>
      <point x="85.43787303309821" y="0.0"/>
    </contour>
    <contour>
      <point x="161.3776451437873" y="328.1931633206728" type="curve"/>
      <point x="286.46988605534455" y="458.4763971785133"/>
      <point x="347.32609875203474" y="478.5236028214867"/>
      <point x="412.32609875203474" y="478.5236028214867" type="curve" smooth="yes"/>
      <point x="430.32609875203474" y="478.5236028214867"/>
      <point x="448.32609875203474" y="478.5236028214867"/>
      <point x="464.32609875203474" y="478.5236028214867" type="curve"/>
      <point x="470.32609875203474" y="478.5236028214867" type="line"/>
      <point x="473.3733043950081" y="491.7618014107434"/>
      <point x="477.18231144872493" y="506.7618014107434"/>
      <point x="480.2295170916983" y="520.0" type="curve"/>
      <point x="482.5149213239284" y="527.0"/>
      <point x="479.2767227346717" y="531.0"/>
      <point x="472.2767227346717" y="531.0" type="curve" smooth="yes"/>
      <point x="421.3733043950081" y="531.0" type="line" smooth="yes"/>
      <point x="339.3733043950081" y="531.0"/>
      <point x="278.3733043950081" y="500.0"/>
      <point x="198.37547476939773" y="422.19099294628325" type="curve" smooth="yes"/>
      <point x="174.8046663049376" y="399.42919153553987"/>
      <point x="161.66304937601737" y="375.0"/>
    </contour>
  </outline>
</glyph>
<glyph name="t.replaced_with_nokinks" format="1">
  <advance width="600"/>
  <outline>
    <contour>
      <point x="220" y="700" type="curve"/>
      <point x="220" y="227" type="line" smooth="yes"/>
      <point x="220" y="130"/>
      <point x="231" y="87"/>
      <point x="266" y="51" type="curve"/>
      <point x="280" y="37"/>
      <point x="309" y="32"/>
      <point x="330" y="40" type="curve"/>
      <point x="279" y="97"/>
      <point x="270.0" y="121.0"/>
      <point x="270.0" y="238.0" type="curve" smooth="yes"/>
      <point x="270" y="689" type="line" smooth="yes"/>
      <point x="270" y="695"/>
      <point x="265" y="700"/>
      <point x="259" y="700" type="curve" smooth="yes"/>
      <point x="246" y="700"/>
      <point x="233" y="700"/>
    </contour>
    <contour>
      <point x="500" y="47" type="curve"/>
      <point x="490" y="47" type="line"/>
      <point x="468" y="47"/>
      <point x="442" y="47"/>
      <point x="414" y="47" type="curve" smooth="yes"/>
      <point x="342" y="47"/>
      <point x="291" y="74"/>
      <point x="255" y="129" type="curve"/>
      <point x="240" y="101"/>
      <point x="245" y="72"/>
      <point x="266" y="51" type="curve" smooth="yes"/>
      <point x="299" y="18"/>
      <point x="346" y="0"/>
      <point x="400" y="0" type="curve" smooth="yes"/>
      <point x="489" y="0" type="line" smooth="yes"/>
      <point x="493" y="0"/>
      <point x="495" y="1"/>
      <point x="497" y="3" type="curve" smooth="yes"/>
      <point x="499" y="5"/>
      <point x="500" y="7"/>
      <point x="500" y="11" type="curve" smooth="yes"/>
      <point x="500" y="24"/>
      <point x="500" y="34"/>
    </contour>
    <contour>
      <point x="100" y="526" type="line"/>
      <point x="100.0" y="513.3611111111111"/>
      <point x="100.0" y="503.6388888888889"/>
      <point x="100" y="491" type="curve" smooth="yes"/>
      <point x="100" y="488"/>
      <point x="101" y="485"/>
      <point x="103" y="483" type="curve" smooth="yes"/>
      <point x="105" y="481"/>
      <point x="108" y="480"/>
      <point x="111" y="480" type="curve" smooth="yes"/>
      <point x="500" y="480" type="line"/>
      <point x="500.0" y="493"/>
      <point x="500.0" y="502"/>
      <point x="500" y="515" type="curve" smooth="yes"/>
      <point x="500" y="521"/>
      <point x="495" y="526"/>
      <point x="489" y="526" type="curve" smooth="yes"/>
    </contour>
  </outline>
</glyph>
<glyph name="y.italic" format="1">
  <advance width="600.0"/>
  <outline>
    <contour>
      <point x="164.61150298426477" y="526.0" type="curve"/>
      <point x="155.46988605534455" y="490.0"/>
      <point x="147.09007053716766" y="458.0"/>
      <point x="139.47205642973412" y="428.0" type="curve" smooth="yes"/>
      <point x="67.10092240911558" y="139.8562126966902" type="line"/>
      <point x="61.00651112316875" y="114.85621269669018"/>
      <point x="64.8176885512751" y="72.5236028214867"/>
      <point x="109.8176885512751" y="72.5236028214867" type="curve"/>
      <point x="107.67390124796528" y="99.5236028214867"/>
      <point x="108.7211068909387" y="110.5236028214867"/>
      <point x="120.90992946283234" y="158.52360282148672" type="curve" smooth="yes"/>
      <point x="211.56429734129136" y="515.0" type="line" smooth="yes"/>
      <point x="213.08790016277808" y="521.0"/>
      <point x="209.61150298426477" y="526.0"/>
      <point x="203.61150298426477" y="526.0" type="curve" smooth="yes"/>
      <point x="190.61150298426477" y="526.0"/>
      <point x="177.61150298426477" y="526.0"/>
    </contour>
    <contour>
      <point x="181.19967444384156" y="-10.0" type="curve" smooth="yes"/>
      <point x="260.9142702116115" y="-10.0"/>
      <point x="331.3884970157352" y="32.523602821486705"/>
      <point x="400.05371676614214" y="104.23602821486706" type="curve" smooth="yes"/>
      <point x="424.38632664134565" y="130.09224091155724"/>
      <point x="432.1953336950624" y="164.18665219750406"/>
      <point x="434.76614215952253" y="199.18665219750406" type="curve"/>
      <point x="328.43570265870864" y="78.28540423223006"/>
      <point x="252.67607162235487" y="35.476397178513295"/>
      <point x="187.00868149755834" y="35.476397178513295" type="curve" smooth="yes"/>
      <point x="124.15246880086815" y="35.476397178513295"/>
      <point x="94.8176885512751" y="70.38198589256646"/>
      <point x="117.6717308735757" y="164.8562126966902" type="curve"/>
      <point x="75.6717308735757" y="162.8562126966902"/>
      <point x="70.14812805208899" y="152.37981551817688"/>
      <point x="67.10092240911558" y="139.8562126966902" type="curve" smooth="yes"/>
      <point x="48.055887140531745" y="63.094411285946826"/>
      <point x="86.05805751492133" y="-10.0"/>
    </contour>
    <contour>
      <point x="418.3906673901248" y="-9.141616928920238" type="curve" smooth="yes"/>
      <point x="552.4677156809549" y="515.0" type="line" smooth="yes"/>
      <point x="553.9913185024417" y="521.0"/>
      <point x="549.7531199131851" y="526.0"/>
      <point x="543.7531199131851" y="526.0" type="curve" smooth="yes"/>
      <point x="530.7531199131851" y="526.0"/>
      <point x="517.7531199131851" y="526.0"/>
      <point x="504.753119913185" y="526.0" type="curve"/>
      <point x="368.3906673901248" y="-9.141616928920238" type="line" smooth="yes"/>
      <point x="343.25122083559415" y="-107.14161692892024"/>
      <point x="313.87140531741727" y="-144.52360282148672"/>
      <point x="225.34997287032013" y="-213.52360282148672" type="curve"/>
      <point x="280.77916440586" y="-230.52360282148672"/>
      <point x="388.680412371134" y="-126.14161692892024"/>
    </contour>
    <contour>
      <point x="141.20618556701032" y="-202.23819858925665" type="curve" smooth="yes"/>
      <point x="67.11394465545308" y="-202.23819858925665"/>
      <point x="32.493760173629965" y="-188.42919153553987"/>
      <point x="1.873575691806849" y="-170.71459576776994" type="curve"/>
      <point x="-10.126424308193151" y="-170.71459576776994" type="line"/>
      <point x="-13.93543136190992" y="-184.47639717851328"/>
      <point x="-16.220835594139984" y="-193.42919153553987"/>
      <point x="-18.506239826370035" y="-203.38198589256646" type="curve" smooth="yes"/>
      <point x="-20.029842647856754" y="-208.90558871405318"/>
      <point x="-19.7916440586001" y="-210.90558871405318"/>
      <point x="-17.7916440586001" y="-213.66739012479653" type="curve" smooth="yes"/>
      <point x="-5.362452523060227" y="-229.1437873033098"/>
      <point x="47.7341291372762" y="-250.0"/>
      <point x="126.73195876288662" y="-250.0" type="curve" smooth="yes"/>
      <point x="282.0667390124797" y="-250.0"/>
      <point x="370.39717851329357" y="-194.47205642973412"/>
      <point x="418.3906673901248" y="-9.141616928920238" type="curve" smooth="yes"/>
      <point x="421.4378730330982" y="4.334780249593056"/>
      <point x="415.96147585458493" y="9.334780249593056"/>
      <point x="401.96147585458493" y="9.334780249593056" type="curve"/>
      <point x="341.39500813890396" y="-159.43136190992948"/>
      <point x="243.0130222463375" y="-202.23819858925665"/>
    </contour>
  </outline>
</glyph>
